G04 #@! TF.GenerationSoftware,KiCad,Pcbnew,(5.1.6)-1*
G04 #@! TF.CreationDate,2020-08-15T13:17:47-05:00*
G04 #@! TF.ProjectId,6502_homebrew_computer,36353032-5f68-46f6-9d65-627265775f63,0.01*
G04 #@! TF.SameCoordinates,Original*
G04 #@! TF.FileFunction,Legend,Top*
G04 #@! TF.FilePolarity,Positive*
%FSLAX46Y46*%
G04 Gerber Fmt 4.6, Leading zero omitted, Abs format (unit mm)*
G04 Created by KiCad (PCBNEW (5.1.6)-1) date 2020-08-15 13:17:47*
%MOMM*%
%LPD*%
G01*
G04 APERTURE LIST*
%ADD10C,0.152400*%
%ADD11C,0.101600*%
%ADD12C,0.002540*%
%ADD13C,0.120000*%
%ADD14C,0.150000*%
G04 APERTURE END LIST*
D10*
X125061638Y-45782895D02*
X125061638Y-46363466D01*
X125022933Y-46479580D01*
X124945523Y-46556990D01*
X124829409Y-46595695D01*
X124752000Y-46595695D01*
X125835733Y-46595695D02*
X125448685Y-46595695D01*
X125448685Y-45782895D01*
X126571123Y-46518285D02*
X126532419Y-46556990D01*
X126416304Y-46595695D01*
X126338895Y-46595695D01*
X126222780Y-46556990D01*
X126145371Y-46479580D01*
X126106666Y-46402171D01*
X126067961Y-46247352D01*
X126067961Y-46131238D01*
X126106666Y-45976419D01*
X126145371Y-45899009D01*
X126222780Y-45821600D01*
X126338895Y-45782895D01*
X126416304Y-45782895D01*
X126532419Y-45821600D01*
X126571123Y-45860304D01*
X127151695Y-45782895D02*
X127151695Y-46363466D01*
X127112990Y-46479580D01*
X127035580Y-46556990D01*
X126919466Y-46595695D01*
X126842057Y-46595695D01*
X127925790Y-46595695D02*
X127538742Y-46595695D01*
X127538742Y-45782895D01*
X128661180Y-46518285D02*
X128622476Y-46556990D01*
X128506361Y-46595695D01*
X128428952Y-46595695D01*
X128312838Y-46556990D01*
X128235428Y-46479580D01*
X128196723Y-46402171D01*
X128158019Y-46247352D01*
X128158019Y-46131238D01*
X128196723Y-45976419D01*
X128235428Y-45899009D01*
X128312838Y-45821600D01*
X128428952Y-45782895D01*
X128506361Y-45782895D01*
X128622476Y-45821600D01*
X128661180Y-45860304D01*
X129241752Y-45782895D02*
X129241752Y-46363466D01*
X129203047Y-46479580D01*
X129125638Y-46556990D01*
X129009523Y-46595695D01*
X128932114Y-46595695D01*
X130015847Y-46595695D02*
X129628800Y-46595695D01*
X129628800Y-45782895D01*
X130751238Y-46518285D02*
X130712533Y-46556990D01*
X130596419Y-46595695D01*
X130519009Y-46595695D01*
X130402895Y-46556990D01*
X130325485Y-46479580D01*
X130286780Y-46402171D01*
X130248076Y-46247352D01*
X130248076Y-46131238D01*
X130286780Y-45976419D01*
X130325485Y-45899009D01*
X130402895Y-45821600D01*
X130519009Y-45782895D01*
X130596419Y-45782895D01*
X130712533Y-45821600D01*
X130751238Y-45860304D01*
X131331809Y-45782895D02*
X131331809Y-46363466D01*
X131293104Y-46479580D01*
X131215695Y-46556990D01*
X131099580Y-46595695D01*
X131022171Y-46595695D01*
X132105904Y-46595695D02*
X131718857Y-46595695D01*
X131718857Y-45782895D01*
X132841295Y-46518285D02*
X132802590Y-46556990D01*
X132686476Y-46595695D01*
X132609066Y-46595695D01*
X132492952Y-46556990D01*
X132415542Y-46479580D01*
X132376838Y-46402171D01*
X132338133Y-46247352D01*
X132338133Y-46131238D01*
X132376838Y-45976419D01*
X132415542Y-45899009D01*
X132492952Y-45821600D01*
X132609066Y-45782895D01*
X132686476Y-45782895D01*
X132802590Y-45821600D01*
X132841295Y-45860304D01*
D11*
X152445257Y-31679847D02*
X152522666Y-31679847D01*
X152561371Y-31699200D01*
X152600076Y-31737904D01*
X152619428Y-31815314D01*
X152619428Y-31950780D01*
X152600076Y-32028190D01*
X152561371Y-32066895D01*
X152522666Y-32086247D01*
X152445257Y-32086247D01*
X152406552Y-32066895D01*
X152367847Y-32028190D01*
X152348495Y-31950780D01*
X152348495Y-31815314D01*
X152367847Y-31737904D01*
X152406552Y-31699200D01*
X152445257Y-31679847D01*
X152793600Y-31815314D02*
X152793600Y-32221714D01*
X152793600Y-31834666D02*
X152832304Y-31815314D01*
X152909714Y-31815314D01*
X152948419Y-31834666D01*
X152967771Y-31854019D01*
X152987123Y-31892723D01*
X152987123Y-32008838D01*
X152967771Y-32047542D01*
X152948419Y-32066895D01*
X152909714Y-32086247D01*
X152832304Y-32086247D01*
X152793600Y-32066895D01*
X153316114Y-32066895D02*
X153277409Y-32086247D01*
X153200000Y-32086247D01*
X153161295Y-32066895D01*
X153141942Y-32028190D01*
X153141942Y-31873371D01*
X153161295Y-31834666D01*
X153200000Y-31815314D01*
X153277409Y-31815314D01*
X153316114Y-31834666D01*
X153335466Y-31873371D01*
X153335466Y-31912076D01*
X153141942Y-31950780D01*
X153509638Y-31815314D02*
X153509638Y-32086247D01*
X153509638Y-31854019D02*
X153528990Y-31834666D01*
X153567695Y-31815314D01*
X153625752Y-31815314D01*
X153664457Y-31834666D01*
X153683809Y-31873371D01*
X153683809Y-32086247D01*
X154167619Y-32066895D02*
X154225676Y-32086247D01*
X154322438Y-32086247D01*
X154361142Y-32066895D01*
X154380495Y-32047542D01*
X154399847Y-32008838D01*
X154399847Y-31970133D01*
X154380495Y-31931428D01*
X154361142Y-31912076D01*
X154322438Y-31892723D01*
X154245028Y-31873371D01*
X154206323Y-31854019D01*
X154186971Y-31834666D01*
X154167619Y-31795961D01*
X154167619Y-31757257D01*
X154186971Y-31718552D01*
X154206323Y-31699200D01*
X154245028Y-31679847D01*
X154341790Y-31679847D01*
X154399847Y-31699200D01*
X154632076Y-32086247D02*
X154593371Y-32066895D01*
X154574019Y-32047542D01*
X154554666Y-32008838D01*
X154554666Y-31892723D01*
X154574019Y-31854019D01*
X154593371Y-31834666D01*
X154632076Y-31815314D01*
X154690133Y-31815314D01*
X154728838Y-31834666D01*
X154748190Y-31854019D01*
X154767542Y-31892723D01*
X154767542Y-32008838D01*
X154748190Y-32047542D01*
X154728838Y-32066895D01*
X154690133Y-32086247D01*
X154632076Y-32086247D01*
X155115885Y-31815314D02*
X155115885Y-32086247D01*
X154941714Y-31815314D02*
X154941714Y-32028190D01*
X154961066Y-32066895D01*
X154999771Y-32086247D01*
X155057828Y-32086247D01*
X155096533Y-32066895D01*
X155115885Y-32047542D01*
X155309409Y-32086247D02*
X155309409Y-31815314D01*
X155309409Y-31892723D02*
X155328761Y-31854019D01*
X155348114Y-31834666D01*
X155386819Y-31815314D01*
X155425523Y-31815314D01*
X155735161Y-32066895D02*
X155696457Y-32086247D01*
X155619047Y-32086247D01*
X155580342Y-32066895D01*
X155560990Y-32047542D01*
X155541638Y-32008838D01*
X155541638Y-31892723D01*
X155560990Y-31854019D01*
X155580342Y-31834666D01*
X155619047Y-31815314D01*
X155696457Y-31815314D01*
X155735161Y-31834666D01*
X156064152Y-32066895D02*
X156025447Y-32086247D01*
X155948038Y-32086247D01*
X155909333Y-32066895D01*
X155889980Y-32028190D01*
X155889980Y-31873371D01*
X155909333Y-31834666D01*
X155948038Y-31815314D01*
X156025447Y-31815314D01*
X156064152Y-31834666D01*
X156083504Y-31873371D01*
X156083504Y-31912076D01*
X155889980Y-31950780D01*
X152909714Y-32797447D02*
X152909714Y-32391047D01*
X152909714Y-32584571D02*
X153141942Y-32584571D01*
X153141942Y-32797447D02*
X153141942Y-32391047D01*
X153509638Y-32797447D02*
X153509638Y-32584571D01*
X153490285Y-32545866D01*
X153451580Y-32526514D01*
X153374171Y-32526514D01*
X153335466Y-32545866D01*
X153509638Y-32778095D02*
X153470933Y-32797447D01*
X153374171Y-32797447D01*
X153335466Y-32778095D01*
X153316114Y-32739390D01*
X153316114Y-32700685D01*
X153335466Y-32661980D01*
X153374171Y-32642628D01*
X153470933Y-32642628D01*
X153509638Y-32623276D01*
X153703161Y-32797447D02*
X153703161Y-32526514D01*
X153703161Y-32603923D02*
X153722514Y-32565219D01*
X153741866Y-32545866D01*
X153780571Y-32526514D01*
X153819276Y-32526514D01*
X154128914Y-32797447D02*
X154128914Y-32391047D01*
X154128914Y-32778095D02*
X154090209Y-32797447D01*
X154012800Y-32797447D01*
X153974095Y-32778095D01*
X153954742Y-32758742D01*
X153935390Y-32720038D01*
X153935390Y-32603923D01*
X153954742Y-32565219D01*
X153974095Y-32545866D01*
X154012800Y-32526514D01*
X154090209Y-32526514D01*
X154128914Y-32545866D01*
X154283733Y-32526514D02*
X154361142Y-32797447D01*
X154438552Y-32603923D01*
X154515961Y-32797447D01*
X154593371Y-32526514D01*
X154922361Y-32797447D02*
X154922361Y-32584571D01*
X154903009Y-32545866D01*
X154864304Y-32526514D01*
X154786895Y-32526514D01*
X154748190Y-32545866D01*
X154922361Y-32778095D02*
X154883657Y-32797447D01*
X154786895Y-32797447D01*
X154748190Y-32778095D01*
X154728838Y-32739390D01*
X154728838Y-32700685D01*
X154748190Y-32661980D01*
X154786895Y-32642628D01*
X154883657Y-32642628D01*
X154922361Y-32623276D01*
X155115885Y-32797447D02*
X155115885Y-32526514D01*
X155115885Y-32603923D02*
X155135238Y-32565219D01*
X155154590Y-32545866D01*
X155193295Y-32526514D01*
X155232000Y-32526514D01*
X155522285Y-32778095D02*
X155483580Y-32797447D01*
X155406171Y-32797447D01*
X155367466Y-32778095D01*
X155348114Y-32739390D01*
X155348114Y-32584571D01*
X155367466Y-32545866D01*
X155406171Y-32526514D01*
X155483580Y-32526514D01*
X155522285Y-32545866D01*
X155541638Y-32584571D01*
X155541638Y-32623276D01*
X155348114Y-32661980D01*
D10*
X134512857Y-84872285D02*
X134474152Y-84910990D01*
X134358038Y-84949695D01*
X134280628Y-84949695D01*
X134164514Y-84910990D01*
X134087104Y-84833580D01*
X134048400Y-84756171D01*
X134009695Y-84601352D01*
X134009695Y-84485238D01*
X134048400Y-84330419D01*
X134087104Y-84253009D01*
X134164514Y-84175600D01*
X134280628Y-84136895D01*
X134358038Y-84136895D01*
X134474152Y-84175600D01*
X134512857Y-84214304D01*
X134861200Y-84949695D02*
X134861200Y-84136895D01*
X135209542Y-84949695D02*
X135209542Y-84523942D01*
X135170838Y-84446533D01*
X135093428Y-84407828D01*
X134977314Y-84407828D01*
X134899904Y-84446533D01*
X134861200Y-84485238D01*
X135596590Y-84949695D02*
X135596590Y-84407828D01*
X135596590Y-84136895D02*
X135557885Y-84175600D01*
X135596590Y-84214304D01*
X135635295Y-84175600D01*
X135596590Y-84136895D01*
X135596590Y-84214304D01*
X135983638Y-84407828D02*
X135983638Y-85220628D01*
X135983638Y-84446533D02*
X136061047Y-84407828D01*
X136215866Y-84407828D01*
X136293276Y-84446533D01*
X136331980Y-84485238D01*
X136370685Y-84562647D01*
X136370685Y-84794876D01*
X136331980Y-84872285D01*
X136293276Y-84910990D01*
X136215866Y-84949695D01*
X136061047Y-84949695D01*
X135983638Y-84910990D01*
X137299600Y-84910990D02*
X137415714Y-84949695D01*
X137609238Y-84949695D01*
X137686647Y-84910990D01*
X137725352Y-84872285D01*
X137764057Y-84794876D01*
X137764057Y-84717466D01*
X137725352Y-84640057D01*
X137686647Y-84601352D01*
X137609238Y-84562647D01*
X137454419Y-84523942D01*
X137377009Y-84485238D01*
X137338304Y-84446533D01*
X137299600Y-84369123D01*
X137299600Y-84291714D01*
X137338304Y-84214304D01*
X137377009Y-84175600D01*
X137454419Y-84136895D01*
X137647942Y-84136895D01*
X137764057Y-84175600D01*
X138422038Y-84910990D02*
X138344628Y-84949695D01*
X138189809Y-84949695D01*
X138112400Y-84910990D01*
X138073695Y-84833580D01*
X138073695Y-84523942D01*
X138112400Y-84446533D01*
X138189809Y-84407828D01*
X138344628Y-84407828D01*
X138422038Y-84446533D01*
X138460742Y-84523942D01*
X138460742Y-84601352D01*
X138073695Y-84678761D01*
X138925200Y-84949695D02*
X138847790Y-84910990D01*
X138809085Y-84833580D01*
X138809085Y-84136895D01*
X139544476Y-84910990D02*
X139467066Y-84949695D01*
X139312247Y-84949695D01*
X139234838Y-84910990D01*
X139196133Y-84833580D01*
X139196133Y-84523942D01*
X139234838Y-84446533D01*
X139312247Y-84407828D01*
X139467066Y-84407828D01*
X139544476Y-84446533D01*
X139583180Y-84523942D01*
X139583180Y-84601352D01*
X139196133Y-84678761D01*
X140279866Y-84910990D02*
X140202457Y-84949695D01*
X140047638Y-84949695D01*
X139970228Y-84910990D01*
X139931523Y-84872285D01*
X139892819Y-84794876D01*
X139892819Y-84562647D01*
X139931523Y-84485238D01*
X139970228Y-84446533D01*
X140047638Y-84407828D01*
X140202457Y-84407828D01*
X140279866Y-84446533D01*
X140512095Y-84407828D02*
X140821733Y-84407828D01*
X140628209Y-84136895D02*
X140628209Y-84833580D01*
X140666914Y-84910990D01*
X140744323Y-84949695D01*
X140821733Y-84949695D01*
X141053961Y-84910990D02*
X141131371Y-84949695D01*
X141286190Y-84949695D01*
X141363600Y-84910990D01*
X141402304Y-84833580D01*
X141402304Y-84794876D01*
X141363600Y-84717466D01*
X141286190Y-84678761D01*
X141170076Y-84678761D01*
X141092666Y-84640057D01*
X141053961Y-84562647D01*
X141053961Y-84523942D01*
X141092666Y-84446533D01*
X141170076Y-84407828D01*
X141286190Y-84407828D01*
X141363600Y-84446533D01*
X108602438Y-84910990D02*
X108718552Y-84949695D01*
X108912076Y-84949695D01*
X108989485Y-84910990D01*
X109028190Y-84872285D01*
X109066895Y-84794876D01*
X109066895Y-84717466D01*
X109028190Y-84640057D01*
X108989485Y-84601352D01*
X108912076Y-84562647D01*
X108757257Y-84523942D01*
X108679847Y-84485238D01*
X108641142Y-84446533D01*
X108602438Y-84369123D01*
X108602438Y-84291714D01*
X108641142Y-84214304D01*
X108679847Y-84175600D01*
X108757257Y-84136895D01*
X108950780Y-84136895D01*
X109066895Y-84175600D01*
X109415238Y-84949695D02*
X109415238Y-84407828D01*
X109415238Y-84136895D02*
X109376533Y-84175600D01*
X109415238Y-84214304D01*
X109453942Y-84175600D01*
X109415238Y-84136895D01*
X109415238Y-84214304D01*
X110150628Y-84407828D02*
X110150628Y-85065809D01*
X110111923Y-85143219D01*
X110073219Y-85181923D01*
X109995809Y-85220628D01*
X109879695Y-85220628D01*
X109802285Y-85181923D01*
X110150628Y-84910990D02*
X110073219Y-84949695D01*
X109918400Y-84949695D01*
X109840990Y-84910990D01*
X109802285Y-84872285D01*
X109763580Y-84794876D01*
X109763580Y-84562647D01*
X109802285Y-84485238D01*
X109840990Y-84446533D01*
X109918400Y-84407828D01*
X110073219Y-84407828D01*
X110150628Y-84446533D01*
X110537676Y-84407828D02*
X110537676Y-84949695D01*
X110537676Y-84485238D02*
X110576380Y-84446533D01*
X110653790Y-84407828D01*
X110769904Y-84407828D01*
X110847314Y-84446533D01*
X110886019Y-84523942D01*
X110886019Y-84949695D01*
X111621409Y-84949695D02*
X111621409Y-84523942D01*
X111582704Y-84446533D01*
X111505295Y-84407828D01*
X111350476Y-84407828D01*
X111273066Y-84446533D01*
X111621409Y-84910990D02*
X111544000Y-84949695D01*
X111350476Y-84949695D01*
X111273066Y-84910990D01*
X111234361Y-84833580D01*
X111234361Y-84756171D01*
X111273066Y-84678761D01*
X111350476Y-84640057D01*
X111544000Y-84640057D01*
X111621409Y-84601352D01*
X112124571Y-84949695D02*
X112047161Y-84910990D01*
X112008457Y-84833580D01*
X112008457Y-84136895D01*
X112395504Y-84910990D02*
X112472914Y-84949695D01*
X112627733Y-84949695D01*
X112705142Y-84910990D01*
X112743847Y-84833580D01*
X112743847Y-84794876D01*
X112705142Y-84717466D01*
X112627733Y-84678761D01*
X112511619Y-84678761D01*
X112434209Y-84640057D01*
X112395504Y-84562647D01*
X112395504Y-84523942D01*
X112434209Y-84446533D01*
X112511619Y-84407828D01*
X112627733Y-84407828D01*
X112705142Y-84446533D01*
X113711466Y-84949695D02*
X113711466Y-84136895D01*
X114098514Y-84407828D02*
X114098514Y-84949695D01*
X114098514Y-84485238D02*
X114137219Y-84446533D01*
X114214628Y-84407828D01*
X114330742Y-84407828D01*
X114408152Y-84446533D01*
X114446857Y-84523942D01*
X114446857Y-84949695D01*
X134602361Y-91730285D02*
X134563657Y-91768990D01*
X134447542Y-91807695D01*
X134370133Y-91807695D01*
X134254019Y-91768990D01*
X134176609Y-91691580D01*
X134137904Y-91614171D01*
X134099200Y-91459352D01*
X134099200Y-91343238D01*
X134137904Y-91188419D01*
X134176609Y-91111009D01*
X134254019Y-91033600D01*
X134370133Y-90994895D01*
X134447542Y-90994895D01*
X134563657Y-91033600D01*
X134602361Y-91072304D01*
X135066819Y-91807695D02*
X134989409Y-91768990D01*
X134950704Y-91691580D01*
X134950704Y-90994895D01*
X135492571Y-91807695D02*
X135415161Y-91768990D01*
X135376457Y-91730285D01*
X135337752Y-91652876D01*
X135337752Y-91420647D01*
X135376457Y-91343238D01*
X135415161Y-91304533D01*
X135492571Y-91265828D01*
X135608685Y-91265828D01*
X135686095Y-91304533D01*
X135724800Y-91343238D01*
X135763504Y-91420647D01*
X135763504Y-91652876D01*
X135724800Y-91730285D01*
X135686095Y-91768990D01*
X135608685Y-91807695D01*
X135492571Y-91807695D01*
X136460190Y-91768990D02*
X136382780Y-91807695D01*
X136227961Y-91807695D01*
X136150552Y-91768990D01*
X136111847Y-91730285D01*
X136073142Y-91652876D01*
X136073142Y-91420647D01*
X136111847Y-91343238D01*
X136150552Y-91304533D01*
X136227961Y-91265828D01*
X136382780Y-91265828D01*
X136460190Y-91304533D01*
X136808533Y-91807695D02*
X136808533Y-90994895D01*
X136885942Y-91498057D02*
X137118171Y-91807695D01*
X137118171Y-91265828D02*
X136808533Y-91575466D01*
X138240609Y-90994895D02*
X138395428Y-90994895D01*
X138472838Y-91033600D01*
X138550247Y-91111009D01*
X138588952Y-91265828D01*
X138588952Y-91536761D01*
X138550247Y-91691580D01*
X138472838Y-91768990D01*
X138395428Y-91807695D01*
X138240609Y-91807695D01*
X138163200Y-91768990D01*
X138085790Y-91691580D01*
X138047085Y-91536761D01*
X138047085Y-91265828D01*
X138085790Y-91111009D01*
X138163200Y-91033600D01*
X138240609Y-90994895D01*
X139285638Y-91265828D02*
X139285638Y-91807695D01*
X138937295Y-91265828D02*
X138937295Y-91691580D01*
X138976000Y-91768990D01*
X139053409Y-91807695D01*
X139169523Y-91807695D01*
X139246933Y-91768990D01*
X139285638Y-91730285D01*
X139556571Y-91265828D02*
X139866209Y-91265828D01*
X139672685Y-90994895D02*
X139672685Y-91691580D01*
X139711390Y-91768990D01*
X139788800Y-91807695D01*
X139866209Y-91807695D01*
X108667752Y-91807695D02*
X108667752Y-90994895D01*
X108977390Y-90994895D01*
X109054800Y-91033600D01*
X109093504Y-91072304D01*
X109132209Y-91149714D01*
X109132209Y-91265828D01*
X109093504Y-91343238D01*
X109054800Y-91381942D01*
X108977390Y-91420647D01*
X108667752Y-91420647D01*
X109596666Y-91807695D02*
X109519257Y-91768990D01*
X109480552Y-91730285D01*
X109441847Y-91652876D01*
X109441847Y-91420647D01*
X109480552Y-91343238D01*
X109519257Y-91304533D01*
X109596666Y-91265828D01*
X109712780Y-91265828D01*
X109790190Y-91304533D01*
X109828895Y-91343238D01*
X109867600Y-91420647D01*
X109867600Y-91652876D01*
X109828895Y-91730285D01*
X109790190Y-91768990D01*
X109712780Y-91807695D01*
X109596666Y-91807695D01*
X110138533Y-91265828D02*
X110293352Y-91807695D01*
X110448171Y-91420647D01*
X110602990Y-91807695D01*
X110757809Y-91265828D01*
X111377085Y-91768990D02*
X111299676Y-91807695D01*
X111144857Y-91807695D01*
X111067447Y-91768990D01*
X111028742Y-91691580D01*
X111028742Y-91381942D01*
X111067447Y-91304533D01*
X111144857Y-91265828D01*
X111299676Y-91265828D01*
X111377085Y-91304533D01*
X111415790Y-91381942D01*
X111415790Y-91459352D01*
X111028742Y-91536761D01*
X111764133Y-91807695D02*
X111764133Y-91265828D01*
X111764133Y-91420647D02*
X111802838Y-91343238D01*
X111841542Y-91304533D01*
X111918952Y-91265828D01*
X111996361Y-91265828D01*
X40203866Y-160387695D02*
X39932933Y-160000647D01*
X39739409Y-160387695D02*
X39739409Y-159574895D01*
X40049047Y-159574895D01*
X40126457Y-159613600D01*
X40165161Y-159652304D01*
X40203866Y-159729714D01*
X40203866Y-159845828D01*
X40165161Y-159923238D01*
X40126457Y-159961942D01*
X40049047Y-160000647D01*
X39739409Y-160000647D01*
X40861847Y-160348990D02*
X40784438Y-160387695D01*
X40629619Y-160387695D01*
X40552209Y-160348990D01*
X40513504Y-160271580D01*
X40513504Y-159961942D01*
X40552209Y-159884533D01*
X40629619Y-159845828D01*
X40784438Y-159845828D01*
X40861847Y-159884533D01*
X40900552Y-159961942D01*
X40900552Y-160039352D01*
X40513504Y-160116761D01*
X41171485Y-159845828D02*
X41365009Y-160387695D01*
X41558533Y-159845828D01*
X41868171Y-160387695D02*
X41868171Y-159845828D01*
X41868171Y-159574895D02*
X41829466Y-159613600D01*
X41868171Y-159652304D01*
X41906876Y-159613600D01*
X41868171Y-159574895D01*
X41868171Y-159652304D01*
X42216514Y-160348990D02*
X42293923Y-160387695D01*
X42448742Y-160387695D01*
X42526152Y-160348990D01*
X42564857Y-160271580D01*
X42564857Y-160232876D01*
X42526152Y-160155466D01*
X42448742Y-160116761D01*
X42332628Y-160116761D01*
X42255219Y-160078057D01*
X42216514Y-160000647D01*
X42216514Y-159961942D01*
X42255219Y-159884533D01*
X42332628Y-159845828D01*
X42448742Y-159845828D01*
X42526152Y-159884533D01*
X42913200Y-160387695D02*
X42913200Y-159845828D01*
X42913200Y-159574895D02*
X42874495Y-159613600D01*
X42913200Y-159652304D01*
X42951904Y-159613600D01*
X42913200Y-159574895D01*
X42913200Y-159652304D01*
X43416361Y-160387695D02*
X43338952Y-160348990D01*
X43300247Y-160310285D01*
X43261542Y-160232876D01*
X43261542Y-160000647D01*
X43300247Y-159923238D01*
X43338952Y-159884533D01*
X43416361Y-159845828D01*
X43532476Y-159845828D01*
X43609885Y-159884533D01*
X43648590Y-159923238D01*
X43687295Y-160000647D01*
X43687295Y-160232876D01*
X43648590Y-160310285D01*
X43609885Y-160348990D01*
X43532476Y-160387695D01*
X43416361Y-160387695D01*
X44035638Y-159845828D02*
X44035638Y-160387695D01*
X44035638Y-159923238D02*
X44074342Y-159884533D01*
X44151752Y-159845828D01*
X44267866Y-159845828D01*
X44345276Y-159884533D01*
X44383980Y-159961942D01*
X44383980Y-160387695D01*
X45545123Y-159574895D02*
X45622533Y-159574895D01*
X45699942Y-159613600D01*
X45738647Y-159652304D01*
X45777352Y-159729714D01*
X45816057Y-159884533D01*
X45816057Y-160078057D01*
X45777352Y-160232876D01*
X45738647Y-160310285D01*
X45699942Y-160348990D01*
X45622533Y-160387695D01*
X45545123Y-160387695D01*
X45467714Y-160348990D01*
X45429009Y-160310285D01*
X45390304Y-160232876D01*
X45351600Y-160078057D01*
X45351600Y-159884533D01*
X45390304Y-159729714D01*
X45429009Y-159652304D01*
X45467714Y-159613600D01*
X45545123Y-159574895D01*
X46164400Y-160310285D02*
X46203104Y-160348990D01*
X46164400Y-160387695D01*
X46125695Y-160348990D01*
X46164400Y-160310285D01*
X46164400Y-160387695D01*
X46706266Y-159574895D02*
X46783676Y-159574895D01*
X46861085Y-159613600D01*
X46899790Y-159652304D01*
X46938495Y-159729714D01*
X46977200Y-159884533D01*
X46977200Y-160078057D01*
X46938495Y-160232876D01*
X46899790Y-160310285D01*
X46861085Y-160348990D01*
X46783676Y-160387695D01*
X46706266Y-160387695D01*
X46628857Y-160348990D01*
X46590152Y-160310285D01*
X46551447Y-160232876D01*
X46512742Y-160078057D01*
X46512742Y-159884533D01*
X46551447Y-159729714D01*
X46590152Y-159652304D01*
X46628857Y-159613600D01*
X46706266Y-159574895D01*
X47751295Y-160387695D02*
X47286838Y-160387695D01*
X47519066Y-160387695D02*
X47519066Y-159574895D01*
X47441657Y-159691009D01*
X47364247Y-159768419D01*
X47286838Y-159807123D01*
X27653847Y-29476095D02*
X27653847Y-28663295D01*
X27847371Y-28663295D01*
X27963485Y-28702000D01*
X28040895Y-28779409D01*
X28079599Y-28856819D01*
X28118304Y-29011638D01*
X28118304Y-29127752D01*
X28079599Y-29282571D01*
X28040895Y-29359980D01*
X27963485Y-29437390D01*
X27847371Y-29476095D01*
X27653847Y-29476095D01*
X28776285Y-29437390D02*
X28698876Y-29476095D01*
X28544057Y-29476095D01*
X28466647Y-29437390D01*
X28427942Y-29359980D01*
X28427942Y-29050342D01*
X28466647Y-28972933D01*
X28544057Y-28934228D01*
X28698876Y-28934228D01*
X28776285Y-28972933D01*
X28814990Y-29050342D01*
X28814990Y-29127752D01*
X28427942Y-29205161D01*
X29124628Y-29437390D02*
X29202038Y-29476095D01*
X29356857Y-29476095D01*
X29434266Y-29437390D01*
X29472971Y-29359980D01*
X29472971Y-29321276D01*
X29434266Y-29243866D01*
X29356857Y-29205161D01*
X29240742Y-29205161D01*
X29163333Y-29166457D01*
X29124628Y-29089047D01*
X29124628Y-29050342D01*
X29163333Y-28972933D01*
X29240742Y-28934228D01*
X29356857Y-28934228D01*
X29434266Y-28972933D01*
X29821314Y-29476095D02*
X29821314Y-28934228D01*
X29821314Y-28663295D02*
X29782609Y-28702000D01*
X29821314Y-28740704D01*
X29860019Y-28702000D01*
X29821314Y-28663295D01*
X29821314Y-28740704D01*
X30556704Y-28934228D02*
X30556704Y-29592209D01*
X30517999Y-29669619D01*
X30479295Y-29708323D01*
X30401885Y-29747028D01*
X30285771Y-29747028D01*
X30208361Y-29708323D01*
X30556704Y-29437390D02*
X30479295Y-29476095D01*
X30324476Y-29476095D01*
X30247066Y-29437390D01*
X30208361Y-29398685D01*
X30169657Y-29321276D01*
X30169657Y-29089047D01*
X30208361Y-29011638D01*
X30247066Y-28972933D01*
X30324476Y-28934228D01*
X30479295Y-28934228D01*
X30556704Y-28972933D01*
X30943752Y-28934228D02*
X30943752Y-29476095D01*
X30943752Y-29011638D02*
X30982457Y-28972933D01*
X31059866Y-28934228D01*
X31175980Y-28934228D01*
X31253390Y-28972933D01*
X31292095Y-29050342D01*
X31292095Y-29476095D01*
X31988780Y-29437390D02*
X31911371Y-29476095D01*
X31756552Y-29476095D01*
X31679142Y-29437390D01*
X31640438Y-29359980D01*
X31640438Y-29050342D01*
X31679142Y-28972933D01*
X31756552Y-28934228D01*
X31911371Y-28934228D01*
X31988780Y-28972933D01*
X32027485Y-29050342D01*
X32027485Y-29127752D01*
X31640438Y-29205161D01*
X32724171Y-29476095D02*
X32724171Y-28663295D01*
X32724171Y-29437390D02*
X32646761Y-29476095D01*
X32491942Y-29476095D01*
X32414533Y-29437390D01*
X32375828Y-29398685D01*
X32337123Y-29321276D01*
X32337123Y-29089047D01*
X32375828Y-29011638D01*
X32414533Y-28972933D01*
X32491942Y-28934228D01*
X32646761Y-28934228D01*
X32724171Y-28972933D01*
X33730495Y-29476095D02*
X33730495Y-28663295D01*
X33730495Y-28972933D02*
X33807904Y-28934228D01*
X33962723Y-28934228D01*
X34040133Y-28972933D01*
X34078838Y-29011638D01*
X34117542Y-29089047D01*
X34117542Y-29321276D01*
X34078838Y-29398685D01*
X34040133Y-29437390D01*
X33962723Y-29476095D01*
X33807904Y-29476095D01*
X33730495Y-29437390D01*
X34388476Y-28934228D02*
X34581999Y-29476095D01*
X34775523Y-28934228D02*
X34581999Y-29476095D01*
X34504590Y-29669619D01*
X34465885Y-29708323D01*
X34388476Y-29747028D01*
X35665733Y-29437390D02*
X35781847Y-29476095D01*
X35975371Y-29476095D01*
X36052780Y-29437390D01*
X36091485Y-29398685D01*
X36130190Y-29321276D01*
X36130190Y-29243866D01*
X36091485Y-29166457D01*
X36052780Y-29127752D01*
X35975371Y-29089047D01*
X35820552Y-29050342D01*
X35743142Y-29011638D01*
X35704438Y-28972933D01*
X35665733Y-28895523D01*
X35665733Y-28818114D01*
X35704438Y-28740704D01*
X35743142Y-28702000D01*
X35820552Y-28663295D01*
X36014076Y-28663295D01*
X36130190Y-28702000D01*
X36478533Y-29476095D02*
X36478533Y-28663295D01*
X36826876Y-29476095D02*
X36826876Y-29050342D01*
X36788171Y-28972933D01*
X36710761Y-28934228D01*
X36594647Y-28934228D01*
X36517238Y-28972933D01*
X36478533Y-29011638D01*
X37562266Y-29476095D02*
X37562266Y-29050342D01*
X37523561Y-28972933D01*
X37446152Y-28934228D01*
X37291333Y-28934228D01*
X37213923Y-28972933D01*
X37562266Y-29437390D02*
X37484857Y-29476095D01*
X37291333Y-29476095D01*
X37213923Y-29437390D01*
X37175219Y-29359980D01*
X37175219Y-29282571D01*
X37213923Y-29205161D01*
X37291333Y-29166457D01*
X37484857Y-29166457D01*
X37562266Y-29127752D01*
X37871904Y-28934228D02*
X38026723Y-29476095D01*
X38181542Y-29089047D01*
X38336361Y-29476095D01*
X38491180Y-28934228D01*
X38800819Y-28934228D02*
X38800819Y-29476095D01*
X38800819Y-29011638D02*
X38839523Y-28972933D01*
X38916933Y-28934228D01*
X39033047Y-28934228D01*
X39110457Y-28972933D01*
X39149161Y-29050342D01*
X39149161Y-29476095D01*
X40116780Y-29243866D02*
X40503828Y-29243866D01*
X40039371Y-29476095D02*
X40310304Y-28663295D01*
X40581238Y-29476095D01*
X40852171Y-28934228D02*
X40852171Y-29476095D01*
X40852171Y-29011638D02*
X40890876Y-28972933D01*
X40968285Y-28934228D01*
X41084399Y-28934228D01*
X41161809Y-28972933D01*
X41200514Y-29050342D01*
X41200514Y-29476095D01*
X41935904Y-29476095D02*
X41935904Y-29050342D01*
X41897199Y-28972933D01*
X41819790Y-28934228D01*
X41664971Y-28934228D01*
X41587561Y-28972933D01*
X41935904Y-29437390D02*
X41858495Y-29476095D01*
X41664971Y-29476095D01*
X41587561Y-29437390D01*
X41548857Y-29359980D01*
X41548857Y-29282571D01*
X41587561Y-29205161D01*
X41664971Y-29166457D01*
X41858495Y-29166457D01*
X41935904Y-29127752D01*
X42284247Y-29437390D02*
X42361657Y-29476095D01*
X42516476Y-29476095D01*
X42593885Y-29437390D01*
X42632590Y-29359980D01*
X42632590Y-29321276D01*
X42593885Y-29243866D01*
X42516476Y-29205161D01*
X42400361Y-29205161D01*
X42322952Y-29166457D01*
X42284247Y-29089047D01*
X42284247Y-29050342D01*
X42322952Y-28972933D01*
X42400361Y-28934228D01*
X42516476Y-28934228D01*
X42593885Y-28972933D01*
X42864819Y-28934228D02*
X43174457Y-28934228D01*
X42980933Y-28663295D02*
X42980933Y-29359980D01*
X43019638Y-29437390D01*
X43097047Y-29476095D01*
X43174457Y-29476095D01*
X43793733Y-29476095D02*
X43793733Y-29050342D01*
X43755028Y-28972933D01*
X43677619Y-28934228D01*
X43522799Y-28934228D01*
X43445390Y-28972933D01*
X43793733Y-29437390D02*
X43716323Y-29476095D01*
X43522799Y-29476095D01*
X43445390Y-29437390D01*
X43406685Y-29359980D01*
X43406685Y-29282571D01*
X43445390Y-29205161D01*
X43522799Y-29166457D01*
X43716323Y-29166457D01*
X43793733Y-29127752D01*
X44142076Y-29437390D02*
X44219485Y-29476095D01*
X44374304Y-29476095D01*
X44451714Y-29437390D01*
X44490419Y-29359980D01*
X44490419Y-29321276D01*
X44451714Y-29243866D01*
X44374304Y-29205161D01*
X44258190Y-29205161D01*
X44180780Y-29166457D01*
X44142076Y-29089047D01*
X44142076Y-29050342D01*
X44180780Y-28972933D01*
X44258190Y-28934228D01*
X44374304Y-28934228D01*
X44451714Y-28972933D01*
X44838761Y-29476095D02*
X44838761Y-28934228D01*
X44838761Y-28663295D02*
X44800057Y-28702000D01*
X44838761Y-28740704D01*
X44877466Y-28702000D01*
X44838761Y-28663295D01*
X44838761Y-28740704D01*
X45341923Y-29476095D02*
X45264514Y-29437390D01*
X45225809Y-29398685D01*
X45187104Y-29321276D01*
X45187104Y-29089047D01*
X45225809Y-29011638D01*
X45264514Y-28972933D01*
X45341923Y-28934228D01*
X45458038Y-28934228D01*
X45535447Y-28972933D01*
X45574152Y-29011638D01*
X45612857Y-29089047D01*
X45612857Y-29321276D01*
X45574152Y-29398685D01*
X45535447Y-29437390D01*
X45458038Y-29476095D01*
X45341923Y-29476095D01*
X31117923Y-30847695D02*
X31117923Y-30034895D01*
X31466266Y-30847695D02*
X31466266Y-30421942D01*
X31427561Y-30344533D01*
X31350152Y-30305828D01*
X31234038Y-30305828D01*
X31156628Y-30344533D01*
X31117923Y-30383238D01*
X31737200Y-30305828D02*
X32046838Y-30305828D01*
X31853314Y-30034895D02*
X31853314Y-30731580D01*
X31892019Y-30808990D01*
X31969428Y-30847695D01*
X32046838Y-30847695D01*
X32201657Y-30305828D02*
X32511295Y-30305828D01*
X32317771Y-30034895D02*
X32317771Y-30731580D01*
X32356476Y-30808990D01*
X32433885Y-30847695D01*
X32511295Y-30847695D01*
X32782228Y-30305828D02*
X32782228Y-31118628D01*
X32782228Y-30344533D02*
X32859638Y-30305828D01*
X33014457Y-30305828D01*
X33091866Y-30344533D01*
X33130571Y-30383238D01*
X33169276Y-30460647D01*
X33169276Y-30692876D01*
X33130571Y-30770285D01*
X33091866Y-30808990D01*
X33014457Y-30847695D01*
X32859638Y-30847695D01*
X32782228Y-30808990D01*
X33478914Y-30808990D02*
X33556323Y-30847695D01*
X33711142Y-30847695D01*
X33788552Y-30808990D01*
X33827257Y-30731580D01*
X33827257Y-30692876D01*
X33788552Y-30615466D01*
X33711142Y-30576761D01*
X33595028Y-30576761D01*
X33517619Y-30538057D01*
X33478914Y-30460647D01*
X33478914Y-30421942D01*
X33517619Y-30344533D01*
X33595028Y-30305828D01*
X33711142Y-30305828D01*
X33788552Y-30344533D01*
X34175600Y-30770285D02*
X34214304Y-30808990D01*
X34175600Y-30847695D01*
X34136895Y-30808990D01*
X34175600Y-30770285D01*
X34175600Y-30847695D01*
X34175600Y-30344533D02*
X34214304Y-30383238D01*
X34175600Y-30421942D01*
X34136895Y-30383238D01*
X34175600Y-30344533D01*
X34175600Y-30421942D01*
X35143219Y-29996190D02*
X34446533Y-31041219D01*
X35994723Y-29996190D02*
X35298038Y-31041219D01*
X36614000Y-30847695D02*
X36614000Y-30421942D01*
X36575295Y-30344533D01*
X36497885Y-30305828D01*
X36343066Y-30305828D01*
X36265657Y-30344533D01*
X36614000Y-30808990D02*
X36536590Y-30847695D01*
X36343066Y-30847695D01*
X36265657Y-30808990D01*
X36226952Y-30731580D01*
X36226952Y-30654171D01*
X36265657Y-30576761D01*
X36343066Y-30538057D01*
X36536590Y-30538057D01*
X36614000Y-30499352D01*
X37001047Y-30305828D02*
X37001047Y-30847695D01*
X37001047Y-30383238D02*
X37039752Y-30344533D01*
X37117161Y-30305828D01*
X37233276Y-30305828D01*
X37310685Y-30344533D01*
X37349390Y-30421942D01*
X37349390Y-30847695D01*
X38084780Y-30847695D02*
X38084780Y-30421942D01*
X38046076Y-30344533D01*
X37968666Y-30305828D01*
X37813847Y-30305828D01*
X37736438Y-30344533D01*
X38084780Y-30808990D02*
X38007371Y-30847695D01*
X37813847Y-30847695D01*
X37736438Y-30808990D01*
X37697733Y-30731580D01*
X37697733Y-30654171D01*
X37736438Y-30576761D01*
X37813847Y-30538057D01*
X38007371Y-30538057D01*
X38084780Y-30499352D01*
X38433123Y-30808990D02*
X38510533Y-30847695D01*
X38665352Y-30847695D01*
X38742761Y-30808990D01*
X38781466Y-30731580D01*
X38781466Y-30692876D01*
X38742761Y-30615466D01*
X38665352Y-30576761D01*
X38549238Y-30576761D01*
X38471828Y-30538057D01*
X38433123Y-30460647D01*
X38433123Y-30421942D01*
X38471828Y-30344533D01*
X38549238Y-30305828D01*
X38665352Y-30305828D01*
X38742761Y-30344533D01*
X39013695Y-30305828D02*
X39323333Y-30305828D01*
X39129809Y-30034895D02*
X39129809Y-30731580D01*
X39168514Y-30808990D01*
X39245923Y-30847695D01*
X39323333Y-30847695D01*
X39942609Y-30847695D02*
X39942609Y-30421942D01*
X39903904Y-30344533D01*
X39826495Y-30305828D01*
X39671676Y-30305828D01*
X39594266Y-30344533D01*
X39942609Y-30808990D02*
X39865200Y-30847695D01*
X39671676Y-30847695D01*
X39594266Y-30808990D01*
X39555561Y-30731580D01*
X39555561Y-30654171D01*
X39594266Y-30576761D01*
X39671676Y-30538057D01*
X39865200Y-30538057D01*
X39942609Y-30499352D01*
X40290952Y-30808990D02*
X40368361Y-30847695D01*
X40523180Y-30847695D01*
X40600590Y-30808990D01*
X40639295Y-30731580D01*
X40639295Y-30692876D01*
X40600590Y-30615466D01*
X40523180Y-30576761D01*
X40407066Y-30576761D01*
X40329657Y-30538057D01*
X40290952Y-30460647D01*
X40290952Y-30421942D01*
X40329657Y-30344533D01*
X40407066Y-30305828D01*
X40523180Y-30305828D01*
X40600590Y-30344533D01*
X40987638Y-30770285D02*
X41026342Y-30808990D01*
X40987638Y-30847695D01*
X40948933Y-30808990D01*
X40987638Y-30770285D01*
X40987638Y-30847695D01*
X41374685Y-30847695D02*
X41374685Y-30305828D01*
X41374685Y-30034895D02*
X41335980Y-30073600D01*
X41374685Y-30112304D01*
X41413390Y-30073600D01*
X41374685Y-30034895D01*
X41374685Y-30112304D01*
X41877847Y-30847695D02*
X41800438Y-30808990D01*
X41761733Y-30770285D01*
X41723028Y-30692876D01*
X41723028Y-30460647D01*
X41761733Y-30383238D01*
X41800438Y-30344533D01*
X41877847Y-30305828D01*
X41993961Y-30305828D01*
X42071371Y-30344533D01*
X42110076Y-30383238D01*
X42148780Y-30460647D01*
X42148780Y-30692876D01*
X42110076Y-30770285D01*
X42071371Y-30808990D01*
X41993961Y-30847695D01*
X41877847Y-30847695D01*
X39666976Y-155163094D02*
X41554530Y-155163094D01*
X40610753Y-158466313D02*
X40610753Y-155163094D01*
X42655603Y-158466313D02*
X42655603Y-155163094D01*
X44071268Y-158466313D02*
X44071268Y-156736055D01*
X43913972Y-156421463D01*
X43599380Y-156264167D01*
X43127491Y-156264167D01*
X42812899Y-156421463D01*
X42655603Y-156578759D01*
X46902599Y-158309017D02*
X46588006Y-158466313D01*
X45958822Y-158466313D01*
X45644230Y-158309017D01*
X45486933Y-157994424D01*
X45486933Y-156736055D01*
X45644230Y-156421463D01*
X45958822Y-156264167D01*
X46588006Y-156264167D01*
X46902599Y-156421463D01*
X47059895Y-156736055D01*
X47059895Y-157050648D01*
X45486933Y-157365240D01*
X52407964Y-155163094D02*
X51778779Y-155163094D01*
X51464187Y-155320390D01*
X51306891Y-155477686D01*
X50992298Y-155949575D01*
X50835002Y-156578759D01*
X50835002Y-157837128D01*
X50992298Y-158151721D01*
X51149595Y-158309017D01*
X51464187Y-158466313D01*
X52093371Y-158466313D01*
X52407964Y-158309017D01*
X52565260Y-158151721D01*
X52722556Y-157837128D01*
X52722556Y-157050648D01*
X52565260Y-156736055D01*
X52407964Y-156578759D01*
X52093371Y-156421463D01*
X51464187Y-156421463D01*
X51149595Y-156578759D01*
X50992298Y-156736055D01*
X50835002Y-157050648D01*
X55711183Y-155163094D02*
X54138221Y-155163094D01*
X53980925Y-156736055D01*
X54138221Y-156578759D01*
X54452814Y-156421463D01*
X55239294Y-156421463D01*
X55553887Y-156578759D01*
X55711183Y-156736055D01*
X55868479Y-157050648D01*
X55868479Y-157837128D01*
X55711183Y-158151721D01*
X55553887Y-158309017D01*
X55239294Y-158466313D01*
X54452814Y-158466313D01*
X54138221Y-158309017D01*
X53980925Y-158151721D01*
X57913329Y-155163094D02*
X58227921Y-155163094D01*
X58542513Y-155320390D01*
X58699809Y-155477686D01*
X58857106Y-155792278D01*
X59014402Y-156421463D01*
X59014402Y-157207944D01*
X58857106Y-157837128D01*
X58699809Y-158151721D01*
X58542513Y-158309017D01*
X58227921Y-158466313D01*
X57913329Y-158466313D01*
X57598736Y-158309017D01*
X57441440Y-158151721D01*
X57284144Y-157837128D01*
X57126848Y-157207944D01*
X57126848Y-156421463D01*
X57284144Y-155792278D01*
X57441440Y-155477686D01*
X57598736Y-155320390D01*
X57913329Y-155163094D01*
X60272771Y-155477686D02*
X60430067Y-155320390D01*
X60744659Y-155163094D01*
X61531140Y-155163094D01*
X61845732Y-155320390D01*
X62003028Y-155477686D01*
X62160325Y-155792278D01*
X62160325Y-156106871D01*
X62003028Y-156578759D01*
X60115475Y-158466313D01*
X62160325Y-158466313D01*
X66092728Y-158466313D02*
X66092728Y-155163094D01*
X66092728Y-156736055D02*
X67980282Y-156736055D01*
X67980282Y-158466313D02*
X67980282Y-155163094D01*
X70025132Y-158466313D02*
X69710539Y-158309017D01*
X69553243Y-158151721D01*
X69395947Y-157837128D01*
X69395947Y-156893351D01*
X69553243Y-156578759D01*
X69710539Y-156421463D01*
X70025132Y-156264167D01*
X70497020Y-156264167D01*
X70811612Y-156421463D01*
X70968909Y-156578759D01*
X71126205Y-156893351D01*
X71126205Y-157837128D01*
X70968909Y-158151721D01*
X70811612Y-158309017D01*
X70497020Y-158466313D01*
X70025132Y-158466313D01*
X72541870Y-158466313D02*
X72541870Y-156264167D01*
X72541870Y-156578759D02*
X72699166Y-156421463D01*
X73013758Y-156264167D01*
X73485647Y-156264167D01*
X73800239Y-156421463D01*
X73957535Y-156736055D01*
X73957535Y-158466313D01*
X73957535Y-156736055D02*
X74114831Y-156421463D01*
X74429424Y-156264167D01*
X74901312Y-156264167D01*
X75215904Y-156421463D01*
X75373201Y-156736055D01*
X75373201Y-158466313D01*
X78204531Y-158309017D02*
X77889939Y-158466313D01*
X77260754Y-158466313D01*
X76946162Y-158309017D01*
X76788866Y-157994424D01*
X76788866Y-156736055D01*
X76946162Y-156421463D01*
X77260754Y-156264167D01*
X77889939Y-156264167D01*
X78204531Y-156421463D01*
X78361827Y-156736055D01*
X78361827Y-157050648D01*
X76788866Y-157365240D01*
X79777493Y-158466313D02*
X79777493Y-155163094D01*
X79777493Y-156421463D02*
X80092085Y-156264167D01*
X80721270Y-156264167D01*
X81035862Y-156421463D01*
X81193158Y-156578759D01*
X81350454Y-156893351D01*
X81350454Y-157837128D01*
X81193158Y-158151721D01*
X81035862Y-158309017D01*
X80721270Y-158466313D01*
X80092085Y-158466313D01*
X79777493Y-158309017D01*
X82766119Y-158466313D02*
X82766119Y-156264167D01*
X82766119Y-156893351D02*
X82923416Y-156578759D01*
X83080712Y-156421463D01*
X83395304Y-156264167D01*
X83709896Y-156264167D01*
X86069338Y-158309017D02*
X85754746Y-158466313D01*
X85125562Y-158466313D01*
X84810969Y-158309017D01*
X84653673Y-157994424D01*
X84653673Y-156736055D01*
X84810969Y-156421463D01*
X85125562Y-156264167D01*
X85754746Y-156264167D01*
X86069338Y-156421463D01*
X86226635Y-156736055D01*
X86226635Y-157050648D01*
X84653673Y-157365240D01*
X87327708Y-156264167D02*
X87956892Y-158466313D01*
X88586077Y-156893351D01*
X89215261Y-158466313D01*
X89844446Y-156264167D01*
X95507107Y-158151721D02*
X95349811Y-158309017D01*
X94877922Y-158466313D01*
X94563330Y-158466313D01*
X94091442Y-158309017D01*
X93776849Y-157994424D01*
X93619553Y-157679832D01*
X93462257Y-157050648D01*
X93462257Y-156578759D01*
X93619553Y-155949575D01*
X93776849Y-155634982D01*
X94091442Y-155320390D01*
X94563330Y-155163094D01*
X94877922Y-155163094D01*
X95349811Y-155320390D01*
X95507107Y-155477686D01*
X97394661Y-158466313D02*
X97080068Y-158309017D01*
X96922772Y-158151721D01*
X96765476Y-157837128D01*
X96765476Y-156893351D01*
X96922772Y-156578759D01*
X97080068Y-156421463D01*
X97394661Y-156264167D01*
X97866549Y-156264167D01*
X98181141Y-156421463D01*
X98338438Y-156578759D01*
X98495734Y-156893351D01*
X98495734Y-157837128D01*
X98338438Y-158151721D01*
X98181141Y-158309017D01*
X97866549Y-158466313D01*
X97394661Y-158466313D01*
X99911399Y-158466313D02*
X99911399Y-156264167D01*
X99911399Y-156578759D02*
X100068695Y-156421463D01*
X100383287Y-156264167D01*
X100855176Y-156264167D01*
X101169768Y-156421463D01*
X101327064Y-156736055D01*
X101327064Y-158466313D01*
X101327064Y-156736055D02*
X101484360Y-156421463D01*
X101798953Y-156264167D01*
X102270841Y-156264167D01*
X102585433Y-156421463D01*
X102742730Y-156736055D01*
X102742730Y-158466313D01*
X104315691Y-156264167D02*
X104315691Y-159567386D01*
X104315691Y-156421463D02*
X104630283Y-156264167D01*
X105259468Y-156264167D01*
X105574060Y-156421463D01*
X105731356Y-156578759D01*
X105888652Y-156893351D01*
X105888652Y-157837128D01*
X105731356Y-158151721D01*
X105574060Y-158309017D01*
X105259468Y-158466313D01*
X104630283Y-158466313D01*
X104315691Y-158309017D01*
X108719983Y-156264167D02*
X108719983Y-158466313D01*
X107304318Y-156264167D02*
X107304318Y-157994424D01*
X107461614Y-158309017D01*
X107776206Y-158466313D01*
X108248095Y-158466313D01*
X108562687Y-158309017D01*
X108719983Y-158151721D01*
X109821056Y-156264167D02*
X111079425Y-156264167D01*
X110292944Y-155163094D02*
X110292944Y-157994424D01*
X110450241Y-158309017D01*
X110764833Y-158466313D01*
X111079425Y-158466313D01*
X113438867Y-158309017D02*
X113124275Y-158466313D01*
X112495090Y-158466313D01*
X112180498Y-158309017D01*
X112023202Y-157994424D01*
X112023202Y-156736055D01*
X112180498Y-156421463D01*
X112495090Y-156264167D01*
X113124275Y-156264167D01*
X113438867Y-156421463D01*
X113596163Y-156736055D01*
X113596163Y-157050648D01*
X112023202Y-157365240D01*
X115011829Y-158466313D02*
X115011829Y-156264167D01*
X115011829Y-156893351D02*
X115169125Y-156578759D01*
X115326421Y-156421463D01*
X115641013Y-156264167D01*
X115955606Y-156264167D01*
X120674490Y-156736055D02*
X121146378Y-156893351D01*
X121303674Y-157050648D01*
X121460971Y-157365240D01*
X121460971Y-157837128D01*
X121303674Y-158151721D01*
X121146378Y-158309017D01*
X120831786Y-158466313D01*
X119573417Y-158466313D01*
X119573417Y-155163094D01*
X120674490Y-155163094D01*
X120989082Y-155320390D01*
X121146378Y-155477686D01*
X121303674Y-155792278D01*
X121303674Y-156106871D01*
X121146378Y-156421463D01*
X120989082Y-156578759D01*
X120674490Y-156736055D01*
X119573417Y-156736055D01*
X124292301Y-158466313D02*
X124292301Y-156736055D01*
X124135005Y-156421463D01*
X123820413Y-156264167D01*
X123191228Y-156264167D01*
X122876636Y-156421463D01*
X124292301Y-158309017D02*
X123977709Y-158466313D01*
X123191228Y-158466313D01*
X122876636Y-158309017D01*
X122719340Y-157994424D01*
X122719340Y-157679832D01*
X122876636Y-157365240D01*
X123191228Y-157207944D01*
X123977709Y-157207944D01*
X124292301Y-157050648D01*
X127280928Y-158309017D02*
X126966336Y-158466313D01*
X126337151Y-158466313D01*
X126022559Y-158309017D01*
X125865263Y-158151721D01*
X125707966Y-157837128D01*
X125707966Y-156893351D01*
X125865263Y-156578759D01*
X126022559Y-156421463D01*
X126337151Y-156264167D01*
X126966336Y-156264167D01*
X127280928Y-156421463D01*
X128696593Y-158466313D02*
X128696593Y-155163094D01*
X129011185Y-157207944D02*
X129954962Y-158466313D01*
X129954962Y-156264167D02*
X128696593Y-157522536D01*
X131370628Y-156264167D02*
X131370628Y-159567386D01*
X131370628Y-156421463D02*
X131685220Y-156264167D01*
X132314404Y-156264167D01*
X132628997Y-156421463D01*
X132786293Y-156578759D01*
X132943589Y-156893351D01*
X132943589Y-157837128D01*
X132786293Y-158151721D01*
X132628997Y-158309017D01*
X132314404Y-158466313D01*
X131685220Y-158466313D01*
X131370628Y-158309017D01*
X134831143Y-158466313D02*
X134516550Y-158309017D01*
X134359254Y-157994424D01*
X134359254Y-155163094D01*
X137505177Y-158466313D02*
X137505177Y-156736055D01*
X137347881Y-156421463D01*
X137033289Y-156264167D01*
X136404104Y-156264167D01*
X136089512Y-156421463D01*
X137505177Y-158309017D02*
X137190585Y-158466313D01*
X136404104Y-158466313D01*
X136089512Y-158309017D01*
X135932216Y-157994424D01*
X135932216Y-157679832D01*
X136089512Y-157365240D01*
X136404104Y-157207944D01*
X137190585Y-157207944D01*
X137505177Y-157050648D01*
X139078139Y-156264167D02*
X139078139Y-158466313D01*
X139078139Y-156578759D02*
X139235435Y-156421463D01*
X139550027Y-156264167D01*
X140021915Y-156264167D01*
X140336508Y-156421463D01*
X140493804Y-156736055D01*
X140493804Y-158466313D01*
X143325134Y-158309017D02*
X143010542Y-158466313D01*
X142381358Y-158466313D01*
X142066765Y-158309017D01*
X141909469Y-157994424D01*
X141909469Y-156736055D01*
X142066765Y-156421463D01*
X142381358Y-156264167D01*
X143010542Y-156264167D01*
X143325134Y-156421463D01*
X143482431Y-156736055D01*
X143482431Y-157050648D01*
X141909469Y-157365240D01*
X111943142Y-127367695D02*
X111943142Y-126554895D01*
X112136666Y-126554895D01*
X112252780Y-126593600D01*
X112330190Y-126671009D01*
X112368895Y-126748419D01*
X112407600Y-126903238D01*
X112407600Y-127019352D01*
X112368895Y-127174171D01*
X112330190Y-127251580D01*
X112252780Y-127328990D01*
X112136666Y-127367695D01*
X111943142Y-127367695D01*
X113104285Y-127367695D02*
X113104285Y-126941942D01*
X113065580Y-126864533D01*
X112988171Y-126825828D01*
X112833352Y-126825828D01*
X112755942Y-126864533D01*
X113104285Y-127328990D02*
X113026876Y-127367695D01*
X112833352Y-127367695D01*
X112755942Y-127328990D01*
X112717238Y-127251580D01*
X112717238Y-127174171D01*
X112755942Y-127096761D01*
X112833352Y-127058057D01*
X113026876Y-127058057D01*
X113104285Y-127019352D01*
X113375219Y-126825828D02*
X113684857Y-126825828D01*
X113491333Y-126554895D02*
X113491333Y-127251580D01*
X113530038Y-127328990D01*
X113607447Y-127367695D01*
X113684857Y-127367695D01*
X114304133Y-127367695D02*
X114304133Y-126941942D01*
X114265428Y-126864533D01*
X114188019Y-126825828D01*
X114033200Y-126825828D01*
X113955790Y-126864533D01*
X114304133Y-127328990D02*
X114226723Y-127367695D01*
X114033200Y-127367695D01*
X113955790Y-127328990D01*
X113917085Y-127251580D01*
X113917085Y-127174171D01*
X113955790Y-127096761D01*
X114033200Y-127058057D01*
X114226723Y-127058057D01*
X114304133Y-127019352D01*
X115697504Y-127367695D02*
X115310457Y-127367695D01*
X115310457Y-126554895D01*
X115968438Y-126941942D02*
X116239371Y-126941942D01*
X116355485Y-127367695D02*
X115968438Y-127367695D01*
X115968438Y-126554895D01*
X116355485Y-126554895D01*
X116703828Y-127367695D02*
X116703828Y-126554895D01*
X116897352Y-126554895D01*
X117013466Y-126593600D01*
X117090876Y-126671009D01*
X117129580Y-126748419D01*
X117168285Y-126903238D01*
X117168285Y-127019352D01*
X117129580Y-127174171D01*
X117090876Y-127251580D01*
X117013466Y-127328990D01*
X116897352Y-127367695D01*
X116703828Y-127367695D01*
X118135904Y-126941942D02*
X118406838Y-126941942D01*
X118522952Y-127367695D02*
X118135904Y-127367695D01*
X118135904Y-126554895D01*
X118522952Y-126554895D01*
X118871295Y-126825828D02*
X118871295Y-127367695D01*
X118871295Y-126903238D02*
X118910000Y-126864533D01*
X118987409Y-126825828D01*
X119103523Y-126825828D01*
X119180933Y-126864533D01*
X119219638Y-126941942D01*
X119219638Y-127367695D01*
X119955028Y-127367695D02*
X119955028Y-126941942D01*
X119916323Y-126864533D01*
X119838914Y-126825828D01*
X119684095Y-126825828D01*
X119606685Y-126864533D01*
X119955028Y-127328990D02*
X119877619Y-127367695D01*
X119684095Y-127367695D01*
X119606685Y-127328990D01*
X119567980Y-127251580D01*
X119567980Y-127174171D01*
X119606685Y-127096761D01*
X119684095Y-127058057D01*
X119877619Y-127058057D01*
X119955028Y-127019352D01*
X120342076Y-127367695D02*
X120342076Y-126554895D01*
X120342076Y-126864533D02*
X120419485Y-126825828D01*
X120574304Y-126825828D01*
X120651714Y-126864533D01*
X120690419Y-126903238D01*
X120729123Y-126980647D01*
X120729123Y-127212876D01*
X120690419Y-127290285D01*
X120651714Y-127328990D01*
X120574304Y-127367695D01*
X120419485Y-127367695D01*
X120342076Y-127328990D01*
X121193580Y-127367695D02*
X121116171Y-127328990D01*
X121077466Y-127251580D01*
X121077466Y-126554895D01*
X121812857Y-127328990D02*
X121735447Y-127367695D01*
X121580628Y-127367695D01*
X121503219Y-127328990D01*
X121464514Y-127251580D01*
X121464514Y-126941942D01*
X121503219Y-126864533D01*
X121580628Y-126825828D01*
X121735447Y-126825828D01*
X121812857Y-126864533D01*
X121851561Y-126941942D01*
X121851561Y-127019352D01*
X121464514Y-127096761D01*
X84774819Y-127135466D02*
X85161866Y-127135466D01*
X84697409Y-127367695D02*
X84968342Y-126554895D01*
X85239276Y-127367695D01*
X85858552Y-127367695D02*
X85858552Y-126554895D01*
X85858552Y-127328990D02*
X85781142Y-127367695D01*
X85626323Y-127367695D01*
X85548914Y-127328990D01*
X85510209Y-127290285D01*
X85471504Y-127212876D01*
X85471504Y-126980647D01*
X85510209Y-126903238D01*
X85548914Y-126864533D01*
X85626323Y-126825828D01*
X85781142Y-126825828D01*
X85858552Y-126864533D01*
X86593942Y-127367695D02*
X86593942Y-126554895D01*
X86593942Y-127328990D02*
X86516533Y-127367695D01*
X86361714Y-127367695D01*
X86284304Y-127328990D01*
X86245600Y-127290285D01*
X86206895Y-127212876D01*
X86206895Y-126980647D01*
X86245600Y-126903238D01*
X86284304Y-126864533D01*
X86361714Y-126825828D01*
X86516533Y-126825828D01*
X86593942Y-126864533D01*
X86980990Y-127367695D02*
X86980990Y-126825828D01*
X86980990Y-126980647D02*
X87019695Y-126903238D01*
X87058400Y-126864533D01*
X87135809Y-126825828D01*
X87213219Y-126825828D01*
X87793790Y-127328990D02*
X87716380Y-127367695D01*
X87561561Y-127367695D01*
X87484152Y-127328990D01*
X87445447Y-127251580D01*
X87445447Y-126941942D01*
X87484152Y-126864533D01*
X87561561Y-126825828D01*
X87716380Y-126825828D01*
X87793790Y-126864533D01*
X87832495Y-126941942D01*
X87832495Y-127019352D01*
X87445447Y-127096761D01*
X88142133Y-127328990D02*
X88219542Y-127367695D01*
X88374361Y-127367695D01*
X88451771Y-127328990D01*
X88490476Y-127251580D01*
X88490476Y-127212876D01*
X88451771Y-127135466D01*
X88374361Y-127096761D01*
X88258247Y-127096761D01*
X88180838Y-127058057D01*
X88142133Y-126980647D01*
X88142133Y-126941942D01*
X88180838Y-126864533D01*
X88258247Y-126825828D01*
X88374361Y-126825828D01*
X88451771Y-126864533D01*
X88800114Y-127328990D02*
X88877523Y-127367695D01*
X89032342Y-127367695D01*
X89109752Y-127328990D01*
X89148457Y-127251580D01*
X89148457Y-127212876D01*
X89109752Y-127135466D01*
X89032342Y-127096761D01*
X88916228Y-127096761D01*
X88838819Y-127058057D01*
X88800114Y-126980647D01*
X88800114Y-126941942D01*
X88838819Y-126864533D01*
X88916228Y-126825828D01*
X89032342Y-126825828D01*
X89109752Y-126864533D01*
X90503123Y-127367695D02*
X90116076Y-127367695D01*
X90116076Y-126554895D01*
X90774057Y-126941942D02*
X91044990Y-126941942D01*
X91161104Y-127367695D02*
X90774057Y-127367695D01*
X90774057Y-126554895D01*
X91161104Y-126554895D01*
X91509447Y-127367695D02*
X91509447Y-126554895D01*
X91702971Y-126554895D01*
X91819085Y-126593600D01*
X91896495Y-126671009D01*
X91935200Y-126748419D01*
X91973904Y-126903238D01*
X91973904Y-127019352D01*
X91935200Y-127174171D01*
X91896495Y-127251580D01*
X91819085Y-127328990D01*
X91702971Y-127367695D01*
X91509447Y-127367695D01*
X92941523Y-126941942D02*
X93212457Y-126941942D01*
X93328571Y-127367695D02*
X92941523Y-127367695D01*
X92941523Y-126554895D01*
X93328571Y-126554895D01*
X93676914Y-126825828D02*
X93676914Y-127367695D01*
X93676914Y-126903238D02*
X93715619Y-126864533D01*
X93793028Y-126825828D01*
X93909142Y-126825828D01*
X93986552Y-126864533D01*
X94025257Y-126941942D01*
X94025257Y-127367695D01*
X94760647Y-127367695D02*
X94760647Y-126941942D01*
X94721942Y-126864533D01*
X94644533Y-126825828D01*
X94489714Y-126825828D01*
X94412304Y-126864533D01*
X94760647Y-127328990D02*
X94683238Y-127367695D01*
X94489714Y-127367695D01*
X94412304Y-127328990D01*
X94373600Y-127251580D01*
X94373600Y-127174171D01*
X94412304Y-127096761D01*
X94489714Y-127058057D01*
X94683238Y-127058057D01*
X94760647Y-127019352D01*
X95147695Y-127367695D02*
X95147695Y-126554895D01*
X95147695Y-126864533D02*
X95225104Y-126825828D01*
X95379923Y-126825828D01*
X95457333Y-126864533D01*
X95496038Y-126903238D01*
X95534742Y-126980647D01*
X95534742Y-127212876D01*
X95496038Y-127290285D01*
X95457333Y-127328990D01*
X95379923Y-127367695D01*
X95225104Y-127367695D01*
X95147695Y-127328990D01*
X95999200Y-127367695D02*
X95921790Y-127328990D01*
X95883085Y-127251580D01*
X95883085Y-126554895D01*
X96618476Y-127328990D02*
X96541066Y-127367695D01*
X96386247Y-127367695D01*
X96308838Y-127328990D01*
X96270133Y-127251580D01*
X96270133Y-126941942D01*
X96308838Y-126864533D01*
X96386247Y-126825828D01*
X96541066Y-126825828D01*
X96618476Y-126864533D01*
X96657180Y-126941942D01*
X96657180Y-127019352D01*
X96270133Y-127096761D01*
D12*
G36*
X153004420Y-31513780D02*
G01*
X153024740Y-31503620D01*
X153073000Y-31473140D01*
X153139040Y-31429960D01*
X153217780Y-31376620D01*
X153296520Y-31323280D01*
X153362560Y-31280100D01*
X153408280Y-31249620D01*
X153426060Y-31239460D01*
X153436220Y-31242000D01*
X153474320Y-31262320D01*
X153530200Y-31290260D01*
X153560680Y-31305500D01*
X153611480Y-31328360D01*
X153636880Y-31333440D01*
X153639420Y-31325820D01*
X153659740Y-31287720D01*
X153687680Y-31221680D01*
X153725780Y-31135320D01*
X153768960Y-31033720D01*
X153814680Y-30924500D01*
X153860400Y-30812740D01*
X153906120Y-30706060D01*
X153944220Y-30609540D01*
X153977240Y-30533340D01*
X153997560Y-30477460D01*
X154005180Y-30454600D01*
X154002640Y-30449520D01*
X153977240Y-30426660D01*
X153934060Y-30393640D01*
X153837540Y-30314900D01*
X153746100Y-30198060D01*
X153687680Y-30065980D01*
X153669900Y-29918660D01*
X153685140Y-29784040D01*
X153738480Y-29654500D01*
X153829920Y-29535120D01*
X153941680Y-29448760D01*
X154071220Y-29392880D01*
X154216000Y-29375100D01*
X154355700Y-29390340D01*
X154487780Y-29443680D01*
X154607160Y-29532580D01*
X154655420Y-29591000D01*
X154724000Y-29710380D01*
X154764640Y-29837380D01*
X154767180Y-29867860D01*
X154762100Y-30010100D01*
X154721460Y-30144720D01*
X154647800Y-30264100D01*
X154543660Y-30363160D01*
X154530960Y-30373320D01*
X154482700Y-30408880D01*
X154452220Y-30431740D01*
X154426820Y-30452060D01*
X154604620Y-30883860D01*
X154632560Y-30952440D01*
X154683360Y-31069280D01*
X154726540Y-31170880D01*
X154759560Y-31252160D01*
X154784960Y-31305500D01*
X154795120Y-31328360D01*
X154810360Y-31330900D01*
X154843380Y-31318200D01*
X154904340Y-31290260D01*
X154944980Y-31269940D01*
X154990700Y-31247080D01*
X155011020Y-31239460D01*
X155028800Y-31249620D01*
X155071980Y-31277560D01*
X155135480Y-31320740D01*
X155211680Y-31371540D01*
X155285340Y-31422340D01*
X155353920Y-31468060D01*
X155402180Y-31498540D01*
X155427580Y-31511240D01*
X155430120Y-31511240D01*
X155450440Y-31498540D01*
X155491080Y-31468060D01*
X155549500Y-31412180D01*
X155630780Y-31330900D01*
X155643480Y-31318200D01*
X155712060Y-31247080D01*
X155767940Y-31188660D01*
X155806040Y-31148020D01*
X155818740Y-31130240D01*
X155806040Y-31104840D01*
X155775560Y-31056580D01*
X155729840Y-30988000D01*
X155676500Y-30909260D01*
X155534260Y-30700980D01*
X155613000Y-30505400D01*
X155635860Y-30446980D01*
X155666340Y-30373320D01*
X155689200Y-30322520D01*
X155701900Y-30299660D01*
X155722220Y-30292040D01*
X155775560Y-30279340D01*
X155854300Y-30261560D01*
X155945740Y-30246320D01*
X156034640Y-30228540D01*
X156113380Y-30213300D01*
X156171800Y-30203140D01*
X156197200Y-30198060D01*
X156202280Y-30192980D01*
X156207360Y-30180280D01*
X156212440Y-30154880D01*
X156212440Y-30106620D01*
X156214980Y-30030420D01*
X156214980Y-29918660D01*
X156214980Y-29908500D01*
X156212440Y-29801820D01*
X156212440Y-29718000D01*
X156209900Y-29664660D01*
X156204820Y-29644340D01*
X156179420Y-29636720D01*
X156123540Y-29626560D01*
X156044800Y-29608780D01*
X155948280Y-29591000D01*
X155943200Y-29591000D01*
X155849220Y-29573220D01*
X155770480Y-29555440D01*
X155714600Y-29542740D01*
X155691740Y-29535120D01*
X155686660Y-29530040D01*
X155666340Y-29491940D01*
X155638400Y-29433520D01*
X155607920Y-29362400D01*
X155577440Y-29288740D01*
X155549500Y-29220160D01*
X155531720Y-29171900D01*
X155526640Y-29149040D01*
X155541880Y-29126180D01*
X155574900Y-29075380D01*
X155620620Y-29009340D01*
X155676500Y-28928060D01*
X155679040Y-28920440D01*
X155734920Y-28841700D01*
X155778100Y-28773120D01*
X155808580Y-28724860D01*
X155818740Y-28704540D01*
X155818740Y-28702000D01*
X155800960Y-28679140D01*
X155760320Y-28633420D01*
X155701900Y-28572460D01*
X155630780Y-28501340D01*
X155607920Y-28481020D01*
X155531720Y-28404820D01*
X155478380Y-28354020D01*
X155442820Y-28328620D01*
X155427580Y-28321000D01*
X155427580Y-28323540D01*
X155402180Y-28336240D01*
X155351380Y-28369260D01*
X155282800Y-28417520D01*
X155201520Y-28470860D01*
X155196440Y-28475940D01*
X155117700Y-28529280D01*
X155051660Y-28575000D01*
X155003400Y-28605480D01*
X154983080Y-28618180D01*
X154978000Y-28618180D01*
X154947520Y-28608020D01*
X154889100Y-28590240D01*
X154820520Y-28562300D01*
X154746860Y-28531820D01*
X154678280Y-28503880D01*
X154627480Y-28481020D01*
X154604620Y-28468320D01*
X154604620Y-28465780D01*
X154594460Y-28437840D01*
X154581760Y-28376880D01*
X154563980Y-28295600D01*
X154546200Y-28196540D01*
X154543660Y-28181300D01*
X154525880Y-28087320D01*
X154510640Y-28008580D01*
X154497940Y-27952700D01*
X154492860Y-27929840D01*
X154480160Y-27927300D01*
X154431900Y-27924760D01*
X154360780Y-27922220D01*
X154274420Y-27922220D01*
X154185520Y-27922220D01*
X154099160Y-27924760D01*
X154022960Y-27927300D01*
X153969620Y-27929840D01*
X153946760Y-27934920D01*
X153944220Y-27937460D01*
X153936600Y-27965400D01*
X153923900Y-28026360D01*
X153906120Y-28107640D01*
X153888340Y-28206700D01*
X153885800Y-28224480D01*
X153868020Y-28318460D01*
X153850240Y-28397200D01*
X153840080Y-28450540D01*
X153832460Y-28470860D01*
X153824840Y-28475940D01*
X153786740Y-28493720D01*
X153723240Y-28519120D01*
X153641960Y-28552140D01*
X153459080Y-28625800D01*
X153235560Y-28470860D01*
X153215240Y-28458160D01*
X153133960Y-28402280D01*
X153067920Y-28359100D01*
X153022200Y-28328620D01*
X153001880Y-28318460D01*
X152979020Y-28338780D01*
X152933300Y-28379420D01*
X152872340Y-28440380D01*
X152803760Y-28508960D01*
X152750420Y-28562300D01*
X152689460Y-28625800D01*
X152648820Y-28666440D01*
X152628500Y-28694380D01*
X152620880Y-28712160D01*
X152623420Y-28722320D01*
X152636120Y-28745180D01*
X152669140Y-28793440D01*
X152714860Y-28862020D01*
X152770740Y-28940760D01*
X152816460Y-29009340D01*
X152864720Y-29083000D01*
X152895200Y-29136340D01*
X152907900Y-29164280D01*
X152905360Y-29174440D01*
X152887580Y-29217620D01*
X152862180Y-29286200D01*
X152829160Y-29364940D01*
X152750420Y-29542740D01*
X152633580Y-29563060D01*
X152562460Y-29578300D01*
X152463400Y-29596080D01*
X152369420Y-29613860D01*
X152222100Y-29644340D01*
X152217020Y-30182820D01*
X152239880Y-30192980D01*
X152262740Y-30200600D01*
X152316080Y-30210760D01*
X152394820Y-30226000D01*
X152486260Y-30243780D01*
X152565000Y-30259020D01*
X152643740Y-30274260D01*
X152699620Y-30284420D01*
X152725020Y-30289500D01*
X152732640Y-30299660D01*
X152752960Y-30337760D01*
X152780900Y-30398720D01*
X152811380Y-30472380D01*
X152841860Y-30546040D01*
X152869800Y-30617160D01*
X152890120Y-30670500D01*
X152897740Y-30698440D01*
X152887580Y-30718760D01*
X152857100Y-30764480D01*
X152813920Y-30830520D01*
X152760580Y-30909260D01*
X152704700Y-30988000D01*
X152661520Y-31056580D01*
X152628500Y-31104840D01*
X152615800Y-31125160D01*
X152623420Y-31140400D01*
X152653900Y-31178500D01*
X152712320Y-31239460D01*
X152801220Y-31328360D01*
X152816460Y-31341060D01*
X152885040Y-31409640D01*
X152946000Y-31462980D01*
X152986640Y-31501080D01*
X153004420Y-31513780D01*
G37*
X153004420Y-31513780D02*
X153024740Y-31503620D01*
X153073000Y-31473140D01*
X153139040Y-31429960D01*
X153217780Y-31376620D01*
X153296520Y-31323280D01*
X153362560Y-31280100D01*
X153408280Y-31249620D01*
X153426060Y-31239460D01*
X153436220Y-31242000D01*
X153474320Y-31262320D01*
X153530200Y-31290260D01*
X153560680Y-31305500D01*
X153611480Y-31328360D01*
X153636880Y-31333440D01*
X153639420Y-31325820D01*
X153659740Y-31287720D01*
X153687680Y-31221680D01*
X153725780Y-31135320D01*
X153768960Y-31033720D01*
X153814680Y-30924500D01*
X153860400Y-30812740D01*
X153906120Y-30706060D01*
X153944220Y-30609540D01*
X153977240Y-30533340D01*
X153997560Y-30477460D01*
X154005180Y-30454600D01*
X154002640Y-30449520D01*
X153977240Y-30426660D01*
X153934060Y-30393640D01*
X153837540Y-30314900D01*
X153746100Y-30198060D01*
X153687680Y-30065980D01*
X153669900Y-29918660D01*
X153685140Y-29784040D01*
X153738480Y-29654500D01*
X153829920Y-29535120D01*
X153941680Y-29448760D01*
X154071220Y-29392880D01*
X154216000Y-29375100D01*
X154355700Y-29390340D01*
X154487780Y-29443680D01*
X154607160Y-29532580D01*
X154655420Y-29591000D01*
X154724000Y-29710380D01*
X154764640Y-29837380D01*
X154767180Y-29867860D01*
X154762100Y-30010100D01*
X154721460Y-30144720D01*
X154647800Y-30264100D01*
X154543660Y-30363160D01*
X154530960Y-30373320D01*
X154482700Y-30408880D01*
X154452220Y-30431740D01*
X154426820Y-30452060D01*
X154604620Y-30883860D01*
X154632560Y-30952440D01*
X154683360Y-31069280D01*
X154726540Y-31170880D01*
X154759560Y-31252160D01*
X154784960Y-31305500D01*
X154795120Y-31328360D01*
X154810360Y-31330900D01*
X154843380Y-31318200D01*
X154904340Y-31290260D01*
X154944980Y-31269940D01*
X154990700Y-31247080D01*
X155011020Y-31239460D01*
X155028800Y-31249620D01*
X155071980Y-31277560D01*
X155135480Y-31320740D01*
X155211680Y-31371540D01*
X155285340Y-31422340D01*
X155353920Y-31468060D01*
X155402180Y-31498540D01*
X155427580Y-31511240D01*
X155430120Y-31511240D01*
X155450440Y-31498540D01*
X155491080Y-31468060D01*
X155549500Y-31412180D01*
X155630780Y-31330900D01*
X155643480Y-31318200D01*
X155712060Y-31247080D01*
X155767940Y-31188660D01*
X155806040Y-31148020D01*
X155818740Y-31130240D01*
X155806040Y-31104840D01*
X155775560Y-31056580D01*
X155729840Y-30988000D01*
X155676500Y-30909260D01*
X155534260Y-30700980D01*
X155613000Y-30505400D01*
X155635860Y-30446980D01*
X155666340Y-30373320D01*
X155689200Y-30322520D01*
X155701900Y-30299660D01*
X155722220Y-30292040D01*
X155775560Y-30279340D01*
X155854300Y-30261560D01*
X155945740Y-30246320D01*
X156034640Y-30228540D01*
X156113380Y-30213300D01*
X156171800Y-30203140D01*
X156197200Y-30198060D01*
X156202280Y-30192980D01*
X156207360Y-30180280D01*
X156212440Y-30154880D01*
X156212440Y-30106620D01*
X156214980Y-30030420D01*
X156214980Y-29918660D01*
X156214980Y-29908500D01*
X156212440Y-29801820D01*
X156212440Y-29718000D01*
X156209900Y-29664660D01*
X156204820Y-29644340D01*
X156179420Y-29636720D01*
X156123540Y-29626560D01*
X156044800Y-29608780D01*
X155948280Y-29591000D01*
X155943200Y-29591000D01*
X155849220Y-29573220D01*
X155770480Y-29555440D01*
X155714600Y-29542740D01*
X155691740Y-29535120D01*
X155686660Y-29530040D01*
X155666340Y-29491940D01*
X155638400Y-29433520D01*
X155607920Y-29362400D01*
X155577440Y-29288740D01*
X155549500Y-29220160D01*
X155531720Y-29171900D01*
X155526640Y-29149040D01*
X155541880Y-29126180D01*
X155574900Y-29075380D01*
X155620620Y-29009340D01*
X155676500Y-28928060D01*
X155679040Y-28920440D01*
X155734920Y-28841700D01*
X155778100Y-28773120D01*
X155808580Y-28724860D01*
X155818740Y-28704540D01*
X155818740Y-28702000D01*
X155800960Y-28679140D01*
X155760320Y-28633420D01*
X155701900Y-28572460D01*
X155630780Y-28501340D01*
X155607920Y-28481020D01*
X155531720Y-28404820D01*
X155478380Y-28354020D01*
X155442820Y-28328620D01*
X155427580Y-28321000D01*
X155427580Y-28323540D01*
X155402180Y-28336240D01*
X155351380Y-28369260D01*
X155282800Y-28417520D01*
X155201520Y-28470860D01*
X155196440Y-28475940D01*
X155117700Y-28529280D01*
X155051660Y-28575000D01*
X155003400Y-28605480D01*
X154983080Y-28618180D01*
X154978000Y-28618180D01*
X154947520Y-28608020D01*
X154889100Y-28590240D01*
X154820520Y-28562300D01*
X154746860Y-28531820D01*
X154678280Y-28503880D01*
X154627480Y-28481020D01*
X154604620Y-28468320D01*
X154604620Y-28465780D01*
X154594460Y-28437840D01*
X154581760Y-28376880D01*
X154563980Y-28295600D01*
X154546200Y-28196540D01*
X154543660Y-28181300D01*
X154525880Y-28087320D01*
X154510640Y-28008580D01*
X154497940Y-27952700D01*
X154492860Y-27929840D01*
X154480160Y-27927300D01*
X154431900Y-27924760D01*
X154360780Y-27922220D01*
X154274420Y-27922220D01*
X154185520Y-27922220D01*
X154099160Y-27924760D01*
X154022960Y-27927300D01*
X153969620Y-27929840D01*
X153946760Y-27934920D01*
X153944220Y-27937460D01*
X153936600Y-27965400D01*
X153923900Y-28026360D01*
X153906120Y-28107640D01*
X153888340Y-28206700D01*
X153885800Y-28224480D01*
X153868020Y-28318460D01*
X153850240Y-28397200D01*
X153840080Y-28450540D01*
X153832460Y-28470860D01*
X153824840Y-28475940D01*
X153786740Y-28493720D01*
X153723240Y-28519120D01*
X153641960Y-28552140D01*
X153459080Y-28625800D01*
X153235560Y-28470860D01*
X153215240Y-28458160D01*
X153133960Y-28402280D01*
X153067920Y-28359100D01*
X153022200Y-28328620D01*
X153001880Y-28318460D01*
X152979020Y-28338780D01*
X152933300Y-28379420D01*
X152872340Y-28440380D01*
X152803760Y-28508960D01*
X152750420Y-28562300D01*
X152689460Y-28625800D01*
X152648820Y-28666440D01*
X152628500Y-28694380D01*
X152620880Y-28712160D01*
X152623420Y-28722320D01*
X152636120Y-28745180D01*
X152669140Y-28793440D01*
X152714860Y-28862020D01*
X152770740Y-28940760D01*
X152816460Y-29009340D01*
X152864720Y-29083000D01*
X152895200Y-29136340D01*
X152907900Y-29164280D01*
X152905360Y-29174440D01*
X152887580Y-29217620D01*
X152862180Y-29286200D01*
X152829160Y-29364940D01*
X152750420Y-29542740D01*
X152633580Y-29563060D01*
X152562460Y-29578300D01*
X152463400Y-29596080D01*
X152369420Y-29613860D01*
X152222100Y-29644340D01*
X152217020Y-30182820D01*
X152239880Y-30192980D01*
X152262740Y-30200600D01*
X152316080Y-30210760D01*
X152394820Y-30226000D01*
X152486260Y-30243780D01*
X152565000Y-30259020D01*
X152643740Y-30274260D01*
X152699620Y-30284420D01*
X152725020Y-30289500D01*
X152732640Y-30299660D01*
X152752960Y-30337760D01*
X152780900Y-30398720D01*
X152811380Y-30472380D01*
X152841860Y-30546040D01*
X152869800Y-30617160D01*
X152890120Y-30670500D01*
X152897740Y-30698440D01*
X152887580Y-30718760D01*
X152857100Y-30764480D01*
X152813920Y-30830520D01*
X152760580Y-30909260D01*
X152704700Y-30988000D01*
X152661520Y-31056580D01*
X152628500Y-31104840D01*
X152615800Y-31125160D01*
X152623420Y-31140400D01*
X152653900Y-31178500D01*
X152712320Y-31239460D01*
X152801220Y-31328360D01*
X152816460Y-31341060D01*
X152885040Y-31409640D01*
X152946000Y-31462980D01*
X152986640Y-31501080D01*
X153004420Y-31513780D01*
D13*
X79388000Y-98060000D02*
X79388000Y-92600000D01*
X79388000Y-92600000D02*
X43708000Y-92600000D01*
X43708000Y-92600000D02*
X43708000Y-105520000D01*
X43708000Y-105520000D02*
X79388000Y-105520000D01*
X79388000Y-105520000D02*
X79388000Y-100060000D01*
X79448000Y-90110000D02*
X43648000Y-90110000D01*
X43648000Y-90110000D02*
X43648000Y-108010000D01*
X43648000Y-108010000D02*
X79448000Y-108010000D01*
X79448000Y-108010000D02*
X79448000Y-90110000D01*
X79388000Y-100060000D02*
G75*
G02*
X79388000Y-98060000I0J1000000D01*
G01*
X79448000Y-78292000D02*
X79448000Y-60392000D01*
X43648000Y-78292000D02*
X79448000Y-78292000D01*
X43648000Y-60392000D02*
X43648000Y-78292000D01*
X79448000Y-60392000D02*
X43648000Y-60392000D01*
X79388000Y-75802000D02*
X79388000Y-70342000D01*
X43708000Y-75802000D02*
X79388000Y-75802000D01*
X43708000Y-62882000D02*
X43708000Y-75802000D01*
X79388000Y-62882000D02*
X43708000Y-62882000D01*
X79388000Y-68342000D02*
X79388000Y-62882000D01*
X79388000Y-70342000D02*
G75*
G02*
X79388000Y-68342000I0J1000000D01*
G01*
X103004000Y-35754000D02*
X103004000Y-53654000D01*
X154044000Y-35754000D02*
X103004000Y-35754000D01*
X154044000Y-53654000D02*
X154044000Y-35754000D01*
X103004000Y-53654000D02*
X154044000Y-53654000D01*
X103064000Y-38244000D02*
X103064000Y-43704000D01*
X153984000Y-38244000D02*
X103064000Y-38244000D01*
X153984000Y-51164000D02*
X153984000Y-38244000D01*
X103064000Y-51164000D02*
X153984000Y-51164000D01*
X103064000Y-45704000D02*
X103064000Y-51164000D01*
X103064000Y-43704000D02*
G75*
G02*
X103064000Y-45704000I0J-1000000D01*
G01*
X116868000Y-117782078D02*
X116868000Y-117264922D01*
X115448000Y-117782078D02*
X115448000Y-117264922D01*
X117488000Y-125790000D02*
X116158000Y-125790000D01*
X117488000Y-124460000D02*
X117488000Y-125790000D01*
X117488000Y-123190000D02*
X114828000Y-123190000D01*
X114828000Y-123190000D02*
X114828000Y-120590000D01*
X117488000Y-123190000D02*
X117488000Y-120590000D01*
X117488000Y-120590000D02*
X114828000Y-120590000D01*
X33214000Y-45704000D02*
X33214000Y-51164000D01*
X33214000Y-51164000D02*
X84134000Y-51164000D01*
X84134000Y-51164000D02*
X84134000Y-38244000D01*
X84134000Y-38244000D02*
X33214000Y-38244000D01*
X33214000Y-38244000D02*
X33214000Y-43704000D01*
X33154000Y-53654000D02*
X84194000Y-53654000D01*
X84194000Y-53654000D02*
X84194000Y-35754000D01*
X84194000Y-35754000D02*
X33154000Y-35754000D01*
X33154000Y-35754000D02*
X33154000Y-53654000D01*
X33214000Y-43704000D02*
G75*
G02*
X33214000Y-45704000I0J-1000000D01*
G01*
X146444000Y-119904000D02*
X146444000Y-118254000D01*
X146444000Y-118254000D02*
X120924000Y-118254000D01*
X120924000Y-118254000D02*
X120924000Y-123554000D01*
X120924000Y-123554000D02*
X146444000Y-123554000D01*
X146444000Y-123554000D02*
X146444000Y-121904000D01*
X146504000Y-115764000D02*
X120864000Y-115764000D01*
X120864000Y-115764000D02*
X120864000Y-126044000D01*
X120864000Y-126044000D02*
X146504000Y-126044000D01*
X146504000Y-126044000D02*
X146504000Y-115764000D01*
X146444000Y-121904000D02*
G75*
G02*
X146444000Y-119904000I0J1000000D01*
G01*
X29008000Y-44533078D02*
X29008000Y-44015922D01*
X30428000Y-44533078D02*
X30428000Y-44015922D01*
X100278000Y-44962578D02*
X100278000Y-44445422D01*
X98858000Y-44962578D02*
X98858000Y-44445422D01*
X38406000Y-99240078D02*
X38406000Y-98722922D01*
X39826000Y-99240078D02*
X39826000Y-98722922D01*
X39572000Y-70695078D02*
X39572000Y-70177922D01*
X38152000Y-70695078D02*
X38152000Y-70177922D01*
X147206000Y-83372000D02*
X147206000Y-80712000D01*
X136986000Y-83372000D02*
X147206000Y-83372000D01*
X136986000Y-80712000D02*
X147206000Y-80712000D01*
X136986000Y-83372000D02*
X136986000Y-80712000D01*
X135716000Y-83372000D02*
X134386000Y-83372000D01*
X134386000Y-83372000D02*
X134386000Y-82042000D01*
X114186000Y-90230000D02*
X114186000Y-87570000D01*
X111586000Y-90230000D02*
X114186000Y-90230000D01*
X111586000Y-87570000D02*
X114186000Y-87570000D01*
X111586000Y-90230000D02*
X111586000Y-87570000D01*
X110316000Y-90230000D02*
X108986000Y-90230000D01*
X108986000Y-90230000D02*
X108986000Y-88900000D01*
X119266000Y-83372000D02*
X119266000Y-80712000D01*
X111586000Y-83372000D02*
X119266000Y-83372000D01*
X111586000Y-80712000D02*
X119266000Y-80712000D01*
X111586000Y-83372000D02*
X111586000Y-80712000D01*
X110316000Y-83372000D02*
X108986000Y-83372000D01*
X108986000Y-83372000D02*
X108986000Y-82042000D01*
X59786400Y-133666500D02*
X59786400Y-130981500D01*
X59786400Y-130981500D02*
X57866400Y-130981500D01*
X57866400Y-130981500D02*
X57866400Y-133666500D01*
X55377200Y-130981500D02*
X55377200Y-133666500D01*
X57297200Y-130981500D02*
X55377200Y-130981500D01*
X57297200Y-133666500D02*
X57297200Y-130981500D01*
X54808000Y-133666500D02*
X54808000Y-130981500D01*
X54808000Y-130981500D02*
X52888000Y-130981500D01*
X52888000Y-130981500D02*
X52888000Y-133666500D01*
X50398800Y-130981500D02*
X50398800Y-133666500D01*
X52318800Y-130981500D02*
X50398800Y-130981500D01*
X52318800Y-133666500D02*
X52318800Y-130981500D01*
X49829600Y-133666500D02*
X49829600Y-130981500D01*
X49829600Y-130981500D02*
X47909600Y-130981500D01*
X47909600Y-130981500D02*
X47909600Y-133666500D01*
X47340400Y-133666500D02*
X47340400Y-130981500D01*
X47340400Y-130981500D02*
X45420400Y-130981500D01*
X45420400Y-130981500D02*
X45420400Y-133666500D01*
X44851200Y-133666500D02*
X44851200Y-130981500D01*
X44851200Y-130981500D02*
X42931200Y-130981500D01*
X42931200Y-130981500D02*
X42931200Y-133666500D01*
X40442000Y-130981500D02*
X40442000Y-133666500D01*
X42362000Y-130981500D02*
X40442000Y-130981500D01*
X42362000Y-133666500D02*
X42362000Y-130981500D01*
X79700000Y-133666500D02*
X79700000Y-130981500D01*
X79700000Y-130981500D02*
X77780000Y-130981500D01*
X77780000Y-130981500D02*
X77780000Y-133666500D01*
X75290800Y-130981500D02*
X75290800Y-133666500D01*
X77210800Y-130981500D02*
X75290800Y-130981500D01*
X77210800Y-133666500D02*
X77210800Y-130981500D01*
X74721600Y-133666500D02*
X74721600Y-130981500D01*
X74721600Y-130981500D02*
X72801600Y-130981500D01*
X72801600Y-130981500D02*
X72801600Y-133666500D01*
X70312400Y-130981500D02*
X70312400Y-133666500D01*
X72232400Y-130981500D02*
X70312400Y-130981500D01*
X72232400Y-133666500D02*
X72232400Y-130981500D01*
X67823200Y-130981500D02*
X67823200Y-133666500D01*
X69743200Y-130981500D02*
X67823200Y-130981500D01*
X69743200Y-133666500D02*
X69743200Y-130981500D01*
X67254000Y-133666500D02*
X67254000Y-130981500D01*
X67254000Y-130981500D02*
X65334000Y-130981500D01*
X65334000Y-130981500D02*
X65334000Y-133666500D01*
X62844800Y-130981500D02*
X62844800Y-133666500D01*
X64764800Y-130981500D02*
X62844800Y-130981500D01*
X64764800Y-133666500D02*
X64764800Y-130981500D01*
X60355600Y-130981500D02*
X60355600Y-133666500D01*
X62275600Y-130981500D02*
X60355600Y-130981500D01*
X62275600Y-133666500D02*
X62275600Y-130981500D01*
X143708000Y-133666500D02*
X143708000Y-130981500D01*
X143708000Y-130981500D02*
X141788000Y-130981500D01*
X141788000Y-130981500D02*
X141788000Y-133666500D01*
X139248000Y-130981500D02*
X139248000Y-133666500D01*
X141168000Y-130981500D02*
X139248000Y-130981500D01*
X141168000Y-133666500D02*
X141168000Y-130981500D01*
X138628000Y-133666500D02*
X138628000Y-130981500D01*
X138628000Y-130981500D02*
X136708000Y-130981500D01*
X136708000Y-130981500D02*
X136708000Y-133666500D01*
X134168000Y-130981500D02*
X134168000Y-133666500D01*
X136088000Y-130981500D02*
X134168000Y-130981500D01*
X136088000Y-133666500D02*
X136088000Y-130981500D01*
X133548000Y-133666500D02*
X133548000Y-130981500D01*
X133548000Y-130981500D02*
X131628000Y-130981500D01*
X131628000Y-130981500D02*
X131628000Y-133666500D01*
X129088000Y-130981500D02*
X129088000Y-133666500D01*
X131008000Y-130981500D02*
X129088000Y-130981500D01*
X131008000Y-133666500D02*
X131008000Y-130981500D01*
X128468000Y-133666500D02*
X128468000Y-130981500D01*
X128468000Y-130981500D02*
X126548000Y-130981500D01*
X126548000Y-130981500D02*
X126548000Y-133666500D01*
X124008000Y-130981500D02*
X124008000Y-133666500D01*
X125928000Y-130981500D02*
X124008000Y-130981500D01*
X125928000Y-133666500D02*
X125928000Y-130981500D01*
X59536400Y-136725922D02*
X59536400Y-137243078D01*
X58116400Y-136725922D02*
X58116400Y-137243078D01*
X55627200Y-136725922D02*
X55627200Y-137243078D01*
X57047200Y-136725922D02*
X57047200Y-137243078D01*
X54558000Y-136725922D02*
X54558000Y-137243078D01*
X53138000Y-136725922D02*
X53138000Y-137243078D01*
X50648800Y-136725922D02*
X50648800Y-137243078D01*
X52068800Y-136725922D02*
X52068800Y-137243078D01*
X48159600Y-136725922D02*
X48159600Y-137243078D01*
X49579600Y-136725922D02*
X49579600Y-137243078D01*
X47090400Y-136725922D02*
X47090400Y-137243078D01*
X45670400Y-136725922D02*
X45670400Y-137243078D01*
X44601200Y-136725922D02*
X44601200Y-137243078D01*
X43181200Y-136725922D02*
X43181200Y-137243078D01*
X42112000Y-136725922D02*
X42112000Y-137243078D01*
X40692000Y-136725922D02*
X40692000Y-137243078D01*
X79450000Y-136725922D02*
X79450000Y-137243078D01*
X78030000Y-136725922D02*
X78030000Y-137243078D01*
X76960800Y-136725922D02*
X76960800Y-137243078D01*
X75540800Y-136725922D02*
X75540800Y-137243078D01*
X74471600Y-136725922D02*
X74471600Y-137243078D01*
X73051600Y-136725922D02*
X73051600Y-137243078D01*
X70562400Y-136725922D02*
X70562400Y-137243078D01*
X71982400Y-136725922D02*
X71982400Y-137243078D01*
X68073200Y-136725922D02*
X68073200Y-137243078D01*
X69493200Y-136725922D02*
X69493200Y-137243078D01*
X65584000Y-136725922D02*
X65584000Y-137243078D01*
X67004000Y-136725922D02*
X67004000Y-137243078D01*
X63094800Y-136725922D02*
X63094800Y-137243078D01*
X64514800Y-136725922D02*
X64514800Y-137243078D01*
X60605600Y-136725922D02*
X60605600Y-137243078D01*
X62025600Y-136725922D02*
X62025600Y-137243078D01*
X142038000Y-136725922D02*
X142038000Y-137243078D01*
X143458000Y-136725922D02*
X143458000Y-137243078D01*
X140918000Y-136725922D02*
X140918000Y-137243078D01*
X139498000Y-136725922D02*
X139498000Y-137243078D01*
X136958000Y-136725922D02*
X136958000Y-137243078D01*
X138378000Y-136725922D02*
X138378000Y-137243078D01*
X135838000Y-136725922D02*
X135838000Y-137243078D01*
X134418000Y-136725922D02*
X134418000Y-137243078D01*
X131878000Y-136725922D02*
X131878000Y-137243078D01*
X133298000Y-136725922D02*
X133298000Y-137243078D01*
X130758000Y-136725922D02*
X130758000Y-137243078D01*
X129338000Y-136725922D02*
X129338000Y-137243078D01*
X126798000Y-136725922D02*
X126798000Y-137243078D01*
X128218000Y-136725922D02*
X128218000Y-137243078D01*
X125678000Y-136725922D02*
X125678000Y-137243078D01*
X124258000Y-136725922D02*
X124258000Y-137243078D01*
X92088000Y-120590000D02*
X89428000Y-120590000D01*
X92088000Y-123190000D02*
X92088000Y-120590000D01*
X89428000Y-123190000D02*
X89428000Y-120590000D01*
X92088000Y-123190000D02*
X89428000Y-123190000D01*
X92088000Y-124460000D02*
X92088000Y-125790000D01*
X92088000Y-125790000D02*
X90758000Y-125790000D01*
X90048000Y-117421922D02*
X90048000Y-117939078D01*
X91468000Y-117421922D02*
X91468000Y-117939078D01*
X59750000Y-119904000D02*
X59750000Y-118254000D01*
X59750000Y-118254000D02*
X34230000Y-118254000D01*
X34230000Y-118254000D02*
X34230000Y-123554000D01*
X34230000Y-123554000D02*
X59750000Y-123554000D01*
X59750000Y-123554000D02*
X59750000Y-121904000D01*
X59810000Y-115764000D02*
X34170000Y-115764000D01*
X34170000Y-115764000D02*
X34170000Y-126044000D01*
X34170000Y-126044000D02*
X59810000Y-126044000D01*
X59810000Y-126044000D02*
X59810000Y-115764000D01*
X59750000Y-121904000D02*
G75*
G02*
X59750000Y-119904000I0J1000000D01*
G01*
X85972000Y-126044000D02*
X85972000Y-115764000D01*
X60332000Y-126044000D02*
X85972000Y-126044000D01*
X60332000Y-115764000D02*
X60332000Y-126044000D01*
X85972000Y-115764000D02*
X60332000Y-115764000D01*
X85912000Y-123554000D02*
X85912000Y-121904000D01*
X60392000Y-123554000D02*
X85912000Y-123554000D01*
X60392000Y-118254000D02*
X60392000Y-123554000D01*
X85912000Y-118254000D02*
X60392000Y-118254000D01*
X85912000Y-119904000D02*
X85912000Y-118254000D01*
X85912000Y-121904000D02*
G75*
G02*
X85912000Y-119904000I0J1000000D01*
G01*
X34748000Y-152388000D02*
X34748000Y-143268000D01*
X34748000Y-143268000D02*
X85808000Y-143268000D01*
X85808000Y-143268000D02*
X85808000Y-152388000D01*
X85808000Y-152388000D02*
X34748000Y-152388000D01*
X58228000Y-152388000D02*
X58228000Y-151078000D01*
X58228000Y-151078000D02*
X36048000Y-151078000D01*
X36048000Y-151078000D02*
X36048000Y-144578000D01*
X36048000Y-144578000D02*
X84508000Y-144578000D01*
X84508000Y-144578000D02*
X84508000Y-151078000D01*
X84508000Y-151078000D02*
X62328000Y-151078000D01*
X62328000Y-151078000D02*
X62328000Y-151078000D01*
X62328000Y-151078000D02*
X62328000Y-152388000D01*
X39958000Y-152778000D02*
X39458000Y-153778000D01*
X39458000Y-153778000D02*
X40458000Y-153778000D01*
X40458000Y-153778000D02*
X39958000Y-152778000D01*
X117044000Y-152388000D02*
X117044000Y-143268000D01*
X117044000Y-143268000D02*
X150324000Y-143268000D01*
X150324000Y-143268000D02*
X150324000Y-152388000D01*
X150324000Y-152388000D02*
X117044000Y-152388000D01*
X131634000Y-152388000D02*
X131634000Y-151078000D01*
X131634000Y-151078000D02*
X118344000Y-151078000D01*
X118344000Y-151078000D02*
X118344000Y-144578000D01*
X118344000Y-144578000D02*
X149024000Y-144578000D01*
X149024000Y-144578000D02*
X149024000Y-151078000D01*
X149024000Y-151078000D02*
X135734000Y-151078000D01*
X135734000Y-151078000D02*
X135734000Y-151078000D01*
X135734000Y-151078000D02*
X135734000Y-152388000D01*
X122254000Y-152778000D02*
X121754000Y-153778000D01*
X121754000Y-153778000D02*
X122754000Y-153778000D01*
X122754000Y-153778000D02*
X122254000Y-152778000D01*
X108836000Y-72632000D02*
X108836000Y-63512000D01*
X108836000Y-63512000D02*
X147196000Y-63512000D01*
X147196000Y-63512000D02*
X147196000Y-72632000D01*
X147196000Y-72632000D02*
X108836000Y-72632000D01*
X125966000Y-72632000D02*
X125966000Y-71322000D01*
X125966000Y-71322000D02*
X110136000Y-71322000D01*
X110136000Y-71322000D02*
X110136000Y-64822000D01*
X110136000Y-64822000D02*
X145896000Y-64822000D01*
X145896000Y-64822000D02*
X145896000Y-71322000D01*
X145896000Y-71322000D02*
X130066000Y-71322000D01*
X130066000Y-71322000D02*
X130066000Y-71322000D01*
X130066000Y-71322000D02*
X130066000Y-72632000D01*
X114046000Y-73022000D02*
X113546000Y-74022000D01*
X113546000Y-74022000D02*
X114546000Y-74022000D01*
X114546000Y-74022000D02*
X114046000Y-73022000D01*
X134386000Y-90230000D02*
X134386000Y-88900000D01*
X135716000Y-90230000D02*
X134386000Y-90230000D01*
X136986000Y-90230000D02*
X136986000Y-87570000D01*
X136986000Y-87570000D02*
X147206000Y-87570000D01*
X136986000Y-90230000D02*
X147206000Y-90230000D01*
X147206000Y-90230000D02*
X147206000Y-87570000D01*
D14*
X43472095Y-88352380D02*
X43472095Y-89161904D01*
X43519714Y-89257142D01*
X43567333Y-89304761D01*
X43662571Y-89352380D01*
X43853047Y-89352380D01*
X43948285Y-89304761D01*
X43995904Y-89257142D01*
X44043523Y-89161904D01*
X44043523Y-88352380D01*
X44424476Y-88352380D02*
X45043523Y-88352380D01*
X44710190Y-88733333D01*
X44853047Y-88733333D01*
X44948285Y-88780952D01*
X44995904Y-88828571D01*
X45043523Y-88923809D01*
X45043523Y-89161904D01*
X44995904Y-89257142D01*
X44948285Y-89304761D01*
X44853047Y-89352380D01*
X44567333Y-89352380D01*
X44472095Y-89304761D01*
X44424476Y-89257142D01*
X43472095Y-58634380D02*
X43472095Y-59443904D01*
X43519714Y-59539142D01*
X43567333Y-59586761D01*
X43662571Y-59634380D01*
X43853047Y-59634380D01*
X43948285Y-59586761D01*
X43995904Y-59539142D01*
X44043523Y-59443904D01*
X44043523Y-58634380D01*
X44948285Y-58967714D02*
X44948285Y-59634380D01*
X44710190Y-58586761D02*
X44472095Y-59301047D01*
X45091142Y-59301047D01*
X102908095Y-33996380D02*
X102908095Y-34805904D01*
X102955714Y-34901142D01*
X103003333Y-34948761D01*
X103098571Y-34996380D01*
X103289047Y-34996380D01*
X103384285Y-34948761D01*
X103431904Y-34901142D01*
X103479523Y-34805904D01*
X103479523Y-33996380D01*
X103908095Y-34091619D02*
X103955714Y-34044000D01*
X104050952Y-33996380D01*
X104289047Y-33996380D01*
X104384285Y-34044000D01*
X104431904Y-34091619D01*
X104479523Y-34186857D01*
X104479523Y-34282095D01*
X104431904Y-34424952D01*
X103860476Y-34996380D01*
X104479523Y-34996380D01*
X118346380Y-118166357D02*
X117870190Y-118499690D01*
X118346380Y-118737785D02*
X117346380Y-118737785D01*
X117346380Y-118356833D01*
X117394000Y-118261595D01*
X117441619Y-118213976D01*
X117536857Y-118166357D01*
X117679714Y-118166357D01*
X117774952Y-118213976D01*
X117822571Y-118261595D01*
X117870190Y-118356833D01*
X117870190Y-118737785D01*
X117441619Y-117785404D02*
X117394000Y-117737785D01*
X117346380Y-117642547D01*
X117346380Y-117404452D01*
X117394000Y-117309214D01*
X117441619Y-117261595D01*
X117536857Y-117213976D01*
X117632095Y-117213976D01*
X117774952Y-117261595D01*
X118346380Y-117833023D01*
X118346380Y-117213976D01*
X117346380Y-116356833D02*
X117346380Y-116547309D01*
X117394000Y-116642547D01*
X117441619Y-116690166D01*
X117584476Y-116785404D01*
X117774952Y-116833023D01*
X118155904Y-116833023D01*
X118251142Y-116785404D01*
X118298761Y-116737785D01*
X118346380Y-116642547D01*
X118346380Y-116452071D01*
X118298761Y-116356833D01*
X118251142Y-116309214D01*
X118155904Y-116261595D01*
X117917809Y-116261595D01*
X117822571Y-116309214D01*
X117774952Y-116356833D01*
X117727333Y-116452071D01*
X117727333Y-116642547D01*
X117774952Y-116737785D01*
X117822571Y-116785404D01*
X117917809Y-116833023D01*
X118576666Y-120102380D02*
X118576666Y-120816666D01*
X118529047Y-120959523D01*
X118433809Y-121054761D01*
X118290952Y-121102380D01*
X118195714Y-121102380D01*
X119100476Y-121102380D02*
X119290952Y-121102380D01*
X119386190Y-121054761D01*
X119433809Y-121007142D01*
X119529047Y-120864285D01*
X119576666Y-120673809D01*
X119576666Y-120292857D01*
X119529047Y-120197619D01*
X119481428Y-120150000D01*
X119386190Y-120102380D01*
X119195714Y-120102380D01*
X119100476Y-120150000D01*
X119052857Y-120197619D01*
X119005238Y-120292857D01*
X119005238Y-120530952D01*
X119052857Y-120626190D01*
X119100476Y-120673809D01*
X119195714Y-120721428D01*
X119386190Y-120721428D01*
X119481428Y-120673809D01*
X119529047Y-120626190D01*
X119576666Y-120530952D01*
X33058095Y-33996380D02*
X33058095Y-34805904D01*
X33105714Y-34901142D01*
X33153333Y-34948761D01*
X33248571Y-34996380D01*
X33439047Y-34996380D01*
X33534285Y-34948761D01*
X33581904Y-34901142D01*
X33629523Y-34805904D01*
X33629523Y-33996380D01*
X34629523Y-34996380D02*
X34058095Y-34996380D01*
X34343809Y-34996380D02*
X34343809Y-33996380D01*
X34248571Y-34139238D01*
X34153333Y-34234476D01*
X34058095Y-34282095D01*
X120688095Y-114006380D02*
X120688095Y-114815904D01*
X120735714Y-114911142D01*
X120783333Y-114958761D01*
X120878571Y-115006380D01*
X121069047Y-115006380D01*
X121164285Y-114958761D01*
X121211904Y-114911142D01*
X121259523Y-114815904D01*
X121259523Y-114006380D01*
X121640476Y-114006380D02*
X122307142Y-114006380D01*
X121878571Y-115006380D01*
X28425142Y-44441166D02*
X28472761Y-44488785D01*
X28520380Y-44631642D01*
X28520380Y-44726880D01*
X28472761Y-44869738D01*
X28377523Y-44964976D01*
X28282285Y-45012595D01*
X28091809Y-45060214D01*
X27948952Y-45060214D01*
X27758476Y-45012595D01*
X27663238Y-44964976D01*
X27568000Y-44869738D01*
X27520380Y-44726880D01*
X27520380Y-44631642D01*
X27568000Y-44488785D01*
X27615619Y-44441166D01*
X28520380Y-43488785D02*
X28520380Y-44060214D01*
X28520380Y-43774500D02*
X27520380Y-43774500D01*
X27663238Y-43869738D01*
X27758476Y-43964976D01*
X27806095Y-44060214D01*
X98275142Y-44870666D02*
X98322761Y-44918285D01*
X98370380Y-45061142D01*
X98370380Y-45156380D01*
X98322761Y-45299238D01*
X98227523Y-45394476D01*
X98132285Y-45442095D01*
X97941809Y-45489714D01*
X97798952Y-45489714D01*
X97608476Y-45442095D01*
X97513238Y-45394476D01*
X97418000Y-45299238D01*
X97370380Y-45156380D01*
X97370380Y-45061142D01*
X97418000Y-44918285D01*
X97465619Y-44870666D01*
X97465619Y-44489714D02*
X97418000Y-44442095D01*
X97370380Y-44346857D01*
X97370380Y-44108761D01*
X97418000Y-44013523D01*
X97465619Y-43965904D01*
X97560857Y-43918285D01*
X97656095Y-43918285D01*
X97798952Y-43965904D01*
X98370380Y-44537333D01*
X98370380Y-43918285D01*
X37823142Y-99148166D02*
X37870761Y-99195785D01*
X37918380Y-99338642D01*
X37918380Y-99433880D01*
X37870761Y-99576738D01*
X37775523Y-99671976D01*
X37680285Y-99719595D01*
X37489809Y-99767214D01*
X37346952Y-99767214D01*
X37156476Y-99719595D01*
X37061238Y-99671976D01*
X36966000Y-99576738D01*
X36918380Y-99433880D01*
X36918380Y-99338642D01*
X36966000Y-99195785D01*
X37013619Y-99148166D01*
X36918380Y-98814833D02*
X36918380Y-98195785D01*
X37299333Y-98529119D01*
X37299333Y-98386261D01*
X37346952Y-98291023D01*
X37394571Y-98243404D01*
X37489809Y-98195785D01*
X37727904Y-98195785D01*
X37823142Y-98243404D01*
X37870761Y-98291023D01*
X37918380Y-98386261D01*
X37918380Y-98671976D01*
X37870761Y-98767214D01*
X37823142Y-98814833D01*
X37569142Y-70603166D02*
X37616761Y-70650785D01*
X37664380Y-70793642D01*
X37664380Y-70888880D01*
X37616761Y-71031738D01*
X37521523Y-71126976D01*
X37426285Y-71174595D01*
X37235809Y-71222214D01*
X37092952Y-71222214D01*
X36902476Y-71174595D01*
X36807238Y-71126976D01*
X36712000Y-71031738D01*
X36664380Y-70888880D01*
X36664380Y-70793642D01*
X36712000Y-70650785D01*
X36759619Y-70603166D01*
X36997714Y-69746023D02*
X37664380Y-69746023D01*
X36616761Y-69984119D02*
X37331047Y-70222214D01*
X37331047Y-69603166D01*
X132546666Y-81240380D02*
X132546666Y-81954666D01*
X132499047Y-82097523D01*
X132403809Y-82192761D01*
X132260952Y-82240380D01*
X132165714Y-82240380D01*
X133451428Y-81240380D02*
X133260952Y-81240380D01*
X133165714Y-81288000D01*
X133118095Y-81335619D01*
X133022857Y-81478476D01*
X132975238Y-81668952D01*
X132975238Y-82049904D01*
X133022857Y-82145142D01*
X133070476Y-82192761D01*
X133165714Y-82240380D01*
X133356190Y-82240380D01*
X133451428Y-82192761D01*
X133499047Y-82145142D01*
X133546666Y-82049904D01*
X133546666Y-81811809D01*
X133499047Y-81716571D01*
X133451428Y-81668952D01*
X133356190Y-81621333D01*
X133165714Y-81621333D01*
X133070476Y-81668952D01*
X133022857Y-81716571D01*
X132975238Y-81811809D01*
X106162476Y-88352380D02*
X106162476Y-89066666D01*
X106114857Y-89209523D01*
X106019619Y-89304761D01*
X105876761Y-89352380D01*
X105781523Y-89352380D01*
X107162476Y-89352380D02*
X106591047Y-89352380D01*
X106876761Y-89352380D02*
X106876761Y-88352380D01*
X106781523Y-88495238D01*
X106686285Y-88590476D01*
X106591047Y-88638095D01*
X107781523Y-88352380D02*
X107876761Y-88352380D01*
X107972000Y-88400000D01*
X108019619Y-88447619D01*
X108067238Y-88542857D01*
X108114857Y-88733333D01*
X108114857Y-88971428D01*
X108067238Y-89161904D01*
X108019619Y-89257142D01*
X107972000Y-89304761D01*
X107876761Y-89352380D01*
X107781523Y-89352380D01*
X107686285Y-89304761D01*
X107638666Y-89257142D01*
X107591047Y-89161904D01*
X107543428Y-88971428D01*
X107543428Y-88733333D01*
X107591047Y-88542857D01*
X107638666Y-88447619D01*
X107686285Y-88400000D01*
X107781523Y-88352380D01*
X106162476Y-81240380D02*
X106162476Y-81954666D01*
X106114857Y-82097523D01*
X106019619Y-82192761D01*
X105876761Y-82240380D01*
X105781523Y-82240380D01*
X107162476Y-82240380D02*
X106591047Y-82240380D01*
X106876761Y-82240380D02*
X106876761Y-81240380D01*
X106781523Y-81383238D01*
X106686285Y-81478476D01*
X106591047Y-81526095D01*
X108114857Y-82240380D02*
X107543428Y-82240380D01*
X107829142Y-82240380D02*
X107829142Y-81240380D01*
X107733904Y-81383238D01*
X107638666Y-81478476D01*
X107543428Y-81526095D01*
X59418380Y-130786095D02*
X58418380Y-130786095D01*
X58418380Y-130548000D01*
X58466000Y-130405142D01*
X58561238Y-130309904D01*
X58656476Y-130262285D01*
X58846952Y-130214666D01*
X58989809Y-130214666D01*
X59180285Y-130262285D01*
X59275523Y-130309904D01*
X59370761Y-130405142D01*
X59418380Y-130548000D01*
X59418380Y-130786095D01*
X58846952Y-129643238D02*
X58799333Y-129738476D01*
X58751714Y-129786095D01*
X58656476Y-129833714D01*
X58608857Y-129833714D01*
X58513619Y-129786095D01*
X58466000Y-129738476D01*
X58418380Y-129643238D01*
X58418380Y-129452761D01*
X58466000Y-129357523D01*
X58513619Y-129309904D01*
X58608857Y-129262285D01*
X58656476Y-129262285D01*
X58751714Y-129309904D01*
X58799333Y-129357523D01*
X58846952Y-129452761D01*
X58846952Y-129643238D01*
X58894571Y-129738476D01*
X58942190Y-129786095D01*
X59037428Y-129833714D01*
X59227904Y-129833714D01*
X59323142Y-129786095D01*
X59370761Y-129738476D01*
X59418380Y-129643238D01*
X59418380Y-129452761D01*
X59370761Y-129357523D01*
X59323142Y-129309904D01*
X59227904Y-129262285D01*
X59037428Y-129262285D01*
X58942190Y-129309904D01*
X58894571Y-129357523D01*
X58846952Y-129452761D01*
X56878380Y-130786095D02*
X55878380Y-130786095D01*
X55878380Y-130548000D01*
X55926000Y-130405142D01*
X56021238Y-130309904D01*
X56116476Y-130262285D01*
X56306952Y-130214666D01*
X56449809Y-130214666D01*
X56640285Y-130262285D01*
X56735523Y-130309904D01*
X56830761Y-130405142D01*
X56878380Y-130548000D01*
X56878380Y-130786095D01*
X55878380Y-129881333D02*
X55878380Y-129214666D01*
X56878380Y-129643238D01*
X54338380Y-130786095D02*
X53338380Y-130786095D01*
X53338380Y-130548000D01*
X53386000Y-130405142D01*
X53481238Y-130309904D01*
X53576476Y-130262285D01*
X53766952Y-130214666D01*
X53909809Y-130214666D01*
X54100285Y-130262285D01*
X54195523Y-130309904D01*
X54290761Y-130405142D01*
X54338380Y-130548000D01*
X54338380Y-130786095D01*
X53338380Y-129357523D02*
X53338380Y-129548000D01*
X53386000Y-129643238D01*
X53433619Y-129690857D01*
X53576476Y-129786095D01*
X53766952Y-129833714D01*
X54147904Y-129833714D01*
X54243142Y-129786095D01*
X54290761Y-129738476D01*
X54338380Y-129643238D01*
X54338380Y-129452761D01*
X54290761Y-129357523D01*
X54243142Y-129309904D01*
X54147904Y-129262285D01*
X53909809Y-129262285D01*
X53814571Y-129309904D01*
X53766952Y-129357523D01*
X53719333Y-129452761D01*
X53719333Y-129643238D01*
X53766952Y-129738476D01*
X53814571Y-129786095D01*
X53909809Y-129833714D01*
X51798380Y-130786095D02*
X50798380Y-130786095D01*
X50798380Y-130548000D01*
X50846000Y-130405142D01*
X50941238Y-130309904D01*
X51036476Y-130262285D01*
X51226952Y-130214666D01*
X51369809Y-130214666D01*
X51560285Y-130262285D01*
X51655523Y-130309904D01*
X51750761Y-130405142D01*
X51798380Y-130548000D01*
X51798380Y-130786095D01*
X50798380Y-129309904D02*
X50798380Y-129786095D01*
X51274571Y-129833714D01*
X51226952Y-129786095D01*
X51179333Y-129690857D01*
X51179333Y-129452761D01*
X51226952Y-129357523D01*
X51274571Y-129309904D01*
X51369809Y-129262285D01*
X51607904Y-129262285D01*
X51703142Y-129309904D01*
X51750761Y-129357523D01*
X51798380Y-129452761D01*
X51798380Y-129690857D01*
X51750761Y-129786095D01*
X51703142Y-129833714D01*
X49512380Y-130786095D02*
X48512380Y-130786095D01*
X48512380Y-130548000D01*
X48560000Y-130405142D01*
X48655238Y-130309904D01*
X48750476Y-130262285D01*
X48940952Y-130214666D01*
X49083809Y-130214666D01*
X49274285Y-130262285D01*
X49369523Y-130309904D01*
X49464761Y-130405142D01*
X49512380Y-130548000D01*
X49512380Y-130786095D01*
X48845714Y-129357523D02*
X49512380Y-129357523D01*
X48464761Y-129595619D02*
X49179047Y-129833714D01*
X49179047Y-129214666D01*
X46972380Y-130786095D02*
X45972380Y-130786095D01*
X45972380Y-130548000D01*
X46020000Y-130405142D01*
X46115238Y-130309904D01*
X46210476Y-130262285D01*
X46400952Y-130214666D01*
X46543809Y-130214666D01*
X46734285Y-130262285D01*
X46829523Y-130309904D01*
X46924761Y-130405142D01*
X46972380Y-130548000D01*
X46972380Y-130786095D01*
X45972380Y-129881333D02*
X45972380Y-129262285D01*
X46353333Y-129595619D01*
X46353333Y-129452761D01*
X46400952Y-129357523D01*
X46448571Y-129309904D01*
X46543809Y-129262285D01*
X46781904Y-129262285D01*
X46877142Y-129309904D01*
X46924761Y-129357523D01*
X46972380Y-129452761D01*
X46972380Y-129738476D01*
X46924761Y-129833714D01*
X46877142Y-129881333D01*
X44432380Y-130786095D02*
X43432380Y-130786095D01*
X43432380Y-130548000D01*
X43480000Y-130405142D01*
X43575238Y-130309904D01*
X43670476Y-130262285D01*
X43860952Y-130214666D01*
X44003809Y-130214666D01*
X44194285Y-130262285D01*
X44289523Y-130309904D01*
X44384761Y-130405142D01*
X44432380Y-130548000D01*
X44432380Y-130786095D01*
X43527619Y-129833714D02*
X43480000Y-129786095D01*
X43432380Y-129690857D01*
X43432380Y-129452761D01*
X43480000Y-129357523D01*
X43527619Y-129309904D01*
X43622857Y-129262285D01*
X43718095Y-129262285D01*
X43860952Y-129309904D01*
X44432380Y-129881333D01*
X44432380Y-129262285D01*
X41892380Y-130786095D02*
X40892380Y-130786095D01*
X40892380Y-130548000D01*
X40940000Y-130405142D01*
X41035238Y-130309904D01*
X41130476Y-130262285D01*
X41320952Y-130214666D01*
X41463809Y-130214666D01*
X41654285Y-130262285D01*
X41749523Y-130309904D01*
X41844761Y-130405142D01*
X41892380Y-130548000D01*
X41892380Y-130786095D01*
X41892380Y-129262285D02*
X41892380Y-129833714D01*
X41892380Y-129548000D02*
X40892380Y-129548000D01*
X41035238Y-129643238D01*
X41130476Y-129738476D01*
X41178095Y-129833714D01*
X79230380Y-130754285D02*
X78230380Y-130754285D01*
X78230380Y-130516190D01*
X78278000Y-130373333D01*
X78373238Y-130278095D01*
X78468476Y-130230476D01*
X78658952Y-130182857D01*
X78801809Y-130182857D01*
X78992285Y-130230476D01*
X79087523Y-130278095D01*
X79182761Y-130373333D01*
X79230380Y-130516190D01*
X79230380Y-130754285D01*
X79230380Y-129230476D02*
X79230380Y-129801904D01*
X79230380Y-129516190D02*
X78230380Y-129516190D01*
X78373238Y-129611428D01*
X78468476Y-129706666D01*
X78516095Y-129801904D01*
X78230380Y-128373333D02*
X78230380Y-128563809D01*
X78278000Y-128659047D01*
X78325619Y-128706666D01*
X78468476Y-128801904D01*
X78658952Y-128849523D01*
X79039904Y-128849523D01*
X79135142Y-128801904D01*
X79182761Y-128754285D01*
X79230380Y-128659047D01*
X79230380Y-128468571D01*
X79182761Y-128373333D01*
X79135142Y-128325714D01*
X79039904Y-128278095D01*
X78801809Y-128278095D01*
X78706571Y-128325714D01*
X78658952Y-128373333D01*
X78611333Y-128468571D01*
X78611333Y-128659047D01*
X78658952Y-128754285D01*
X78706571Y-128801904D01*
X78801809Y-128849523D01*
X76690380Y-130754285D02*
X75690380Y-130754285D01*
X75690380Y-130516190D01*
X75738000Y-130373333D01*
X75833238Y-130278095D01*
X75928476Y-130230476D01*
X76118952Y-130182857D01*
X76261809Y-130182857D01*
X76452285Y-130230476D01*
X76547523Y-130278095D01*
X76642761Y-130373333D01*
X76690380Y-130516190D01*
X76690380Y-130754285D01*
X76690380Y-129230476D02*
X76690380Y-129801904D01*
X76690380Y-129516190D02*
X75690380Y-129516190D01*
X75833238Y-129611428D01*
X75928476Y-129706666D01*
X75976095Y-129801904D01*
X75690380Y-128325714D02*
X75690380Y-128801904D01*
X76166571Y-128849523D01*
X76118952Y-128801904D01*
X76071333Y-128706666D01*
X76071333Y-128468571D01*
X76118952Y-128373333D01*
X76166571Y-128325714D01*
X76261809Y-128278095D01*
X76499904Y-128278095D01*
X76595142Y-128325714D01*
X76642761Y-128373333D01*
X76690380Y-128468571D01*
X76690380Y-128706666D01*
X76642761Y-128801904D01*
X76595142Y-128849523D01*
X74404380Y-130754285D02*
X73404380Y-130754285D01*
X73404380Y-130516190D01*
X73452000Y-130373333D01*
X73547238Y-130278095D01*
X73642476Y-130230476D01*
X73832952Y-130182857D01*
X73975809Y-130182857D01*
X74166285Y-130230476D01*
X74261523Y-130278095D01*
X74356761Y-130373333D01*
X74404380Y-130516190D01*
X74404380Y-130754285D01*
X74404380Y-129230476D02*
X74404380Y-129801904D01*
X74404380Y-129516190D02*
X73404380Y-129516190D01*
X73547238Y-129611428D01*
X73642476Y-129706666D01*
X73690095Y-129801904D01*
X73737714Y-128373333D02*
X74404380Y-128373333D01*
X73356761Y-128611428D02*
X74071047Y-128849523D01*
X74071047Y-128230476D01*
X71864380Y-130754285D02*
X70864380Y-130754285D01*
X70864380Y-130516190D01*
X70912000Y-130373333D01*
X71007238Y-130278095D01*
X71102476Y-130230476D01*
X71292952Y-130182857D01*
X71435809Y-130182857D01*
X71626285Y-130230476D01*
X71721523Y-130278095D01*
X71816761Y-130373333D01*
X71864380Y-130516190D01*
X71864380Y-130754285D01*
X71864380Y-129230476D02*
X71864380Y-129801904D01*
X71864380Y-129516190D02*
X70864380Y-129516190D01*
X71007238Y-129611428D01*
X71102476Y-129706666D01*
X71150095Y-129801904D01*
X70864380Y-128897142D02*
X70864380Y-128278095D01*
X71245333Y-128611428D01*
X71245333Y-128468571D01*
X71292952Y-128373333D01*
X71340571Y-128325714D01*
X71435809Y-128278095D01*
X71673904Y-128278095D01*
X71769142Y-128325714D01*
X71816761Y-128373333D01*
X71864380Y-128468571D01*
X71864380Y-128754285D01*
X71816761Y-128849523D01*
X71769142Y-128897142D01*
X69324380Y-130754285D02*
X68324380Y-130754285D01*
X68324380Y-130516190D01*
X68372000Y-130373333D01*
X68467238Y-130278095D01*
X68562476Y-130230476D01*
X68752952Y-130182857D01*
X68895809Y-130182857D01*
X69086285Y-130230476D01*
X69181523Y-130278095D01*
X69276761Y-130373333D01*
X69324380Y-130516190D01*
X69324380Y-130754285D01*
X69324380Y-129230476D02*
X69324380Y-129801904D01*
X69324380Y-129516190D02*
X68324380Y-129516190D01*
X68467238Y-129611428D01*
X68562476Y-129706666D01*
X68610095Y-129801904D01*
X68419619Y-128849523D02*
X68372000Y-128801904D01*
X68324380Y-128706666D01*
X68324380Y-128468571D01*
X68372000Y-128373333D01*
X68419619Y-128325714D01*
X68514857Y-128278095D01*
X68610095Y-128278095D01*
X68752952Y-128325714D01*
X69324380Y-128897142D01*
X69324380Y-128278095D01*
X66784380Y-130754285D02*
X65784380Y-130754285D01*
X65784380Y-130516190D01*
X65832000Y-130373333D01*
X65927238Y-130278095D01*
X66022476Y-130230476D01*
X66212952Y-130182857D01*
X66355809Y-130182857D01*
X66546285Y-130230476D01*
X66641523Y-130278095D01*
X66736761Y-130373333D01*
X66784380Y-130516190D01*
X66784380Y-130754285D01*
X66784380Y-129230476D02*
X66784380Y-129801904D01*
X66784380Y-129516190D02*
X65784380Y-129516190D01*
X65927238Y-129611428D01*
X66022476Y-129706666D01*
X66070095Y-129801904D01*
X66784380Y-128278095D02*
X66784380Y-128849523D01*
X66784380Y-128563809D02*
X65784380Y-128563809D01*
X65927238Y-128659047D01*
X66022476Y-128754285D01*
X66070095Y-128849523D01*
X64244380Y-130754285D02*
X63244380Y-130754285D01*
X63244380Y-130516190D01*
X63292000Y-130373333D01*
X63387238Y-130278095D01*
X63482476Y-130230476D01*
X63672952Y-130182857D01*
X63815809Y-130182857D01*
X64006285Y-130230476D01*
X64101523Y-130278095D01*
X64196761Y-130373333D01*
X64244380Y-130516190D01*
X64244380Y-130754285D01*
X64244380Y-129230476D02*
X64244380Y-129801904D01*
X64244380Y-129516190D02*
X63244380Y-129516190D01*
X63387238Y-129611428D01*
X63482476Y-129706666D01*
X63530095Y-129801904D01*
X63244380Y-128611428D02*
X63244380Y-128516190D01*
X63292000Y-128420952D01*
X63339619Y-128373333D01*
X63434857Y-128325714D01*
X63625333Y-128278095D01*
X63863428Y-128278095D01*
X64053904Y-128325714D01*
X64149142Y-128373333D01*
X64196761Y-128420952D01*
X64244380Y-128516190D01*
X64244380Y-128611428D01*
X64196761Y-128706666D01*
X64149142Y-128754285D01*
X64053904Y-128801904D01*
X63863428Y-128849523D01*
X63625333Y-128849523D01*
X63434857Y-128801904D01*
X63339619Y-128754285D01*
X63292000Y-128706666D01*
X63244380Y-128611428D01*
X61704380Y-130786095D02*
X60704380Y-130786095D01*
X60704380Y-130548000D01*
X60752000Y-130405142D01*
X60847238Y-130309904D01*
X60942476Y-130262285D01*
X61132952Y-130214666D01*
X61275809Y-130214666D01*
X61466285Y-130262285D01*
X61561523Y-130309904D01*
X61656761Y-130405142D01*
X61704380Y-130548000D01*
X61704380Y-130786095D01*
X61704380Y-129738476D02*
X61704380Y-129548000D01*
X61656761Y-129452761D01*
X61609142Y-129405142D01*
X61466285Y-129309904D01*
X61275809Y-129262285D01*
X60894857Y-129262285D01*
X60799619Y-129309904D01*
X60752000Y-129357523D01*
X60704380Y-129452761D01*
X60704380Y-129643238D01*
X60752000Y-129738476D01*
X60799619Y-129786095D01*
X60894857Y-129833714D01*
X61132952Y-129833714D01*
X61228190Y-129786095D01*
X61275809Y-129738476D01*
X61323428Y-129643238D01*
X61323428Y-129452761D01*
X61275809Y-129357523D01*
X61228190Y-129309904D01*
X61132952Y-129262285D01*
X143238380Y-130754285D02*
X142238380Y-130754285D01*
X142238380Y-130516190D01*
X142286000Y-130373333D01*
X142381238Y-130278095D01*
X142476476Y-130230476D01*
X142666952Y-130182857D01*
X142809809Y-130182857D01*
X143000285Y-130230476D01*
X143095523Y-130278095D01*
X143190761Y-130373333D01*
X143238380Y-130516190D01*
X143238380Y-130754285D01*
X142333619Y-129801904D02*
X142286000Y-129754285D01*
X142238380Y-129659047D01*
X142238380Y-129420952D01*
X142286000Y-129325714D01*
X142333619Y-129278095D01*
X142428857Y-129230476D01*
X142524095Y-129230476D01*
X142666952Y-129278095D01*
X143238380Y-129849523D01*
X143238380Y-129230476D01*
X142571714Y-128373333D02*
X143238380Y-128373333D01*
X142190761Y-128611428D02*
X142905047Y-128849523D01*
X142905047Y-128230476D01*
X140698380Y-130754285D02*
X139698380Y-130754285D01*
X139698380Y-130516190D01*
X139746000Y-130373333D01*
X139841238Y-130278095D01*
X139936476Y-130230476D01*
X140126952Y-130182857D01*
X140269809Y-130182857D01*
X140460285Y-130230476D01*
X140555523Y-130278095D01*
X140650761Y-130373333D01*
X140698380Y-130516190D01*
X140698380Y-130754285D01*
X139793619Y-129801904D02*
X139746000Y-129754285D01*
X139698380Y-129659047D01*
X139698380Y-129420952D01*
X139746000Y-129325714D01*
X139793619Y-129278095D01*
X139888857Y-129230476D01*
X139984095Y-129230476D01*
X140126952Y-129278095D01*
X140698380Y-129849523D01*
X140698380Y-129230476D01*
X139698380Y-128897142D02*
X139698380Y-128278095D01*
X140079333Y-128611428D01*
X140079333Y-128468571D01*
X140126952Y-128373333D01*
X140174571Y-128325714D01*
X140269809Y-128278095D01*
X140507904Y-128278095D01*
X140603142Y-128325714D01*
X140650761Y-128373333D01*
X140698380Y-128468571D01*
X140698380Y-128754285D01*
X140650761Y-128849523D01*
X140603142Y-128897142D01*
X138158380Y-130754285D02*
X137158380Y-130754285D01*
X137158380Y-130516190D01*
X137206000Y-130373333D01*
X137301238Y-130278095D01*
X137396476Y-130230476D01*
X137586952Y-130182857D01*
X137729809Y-130182857D01*
X137920285Y-130230476D01*
X138015523Y-130278095D01*
X138110761Y-130373333D01*
X138158380Y-130516190D01*
X138158380Y-130754285D01*
X137253619Y-129801904D02*
X137206000Y-129754285D01*
X137158380Y-129659047D01*
X137158380Y-129420952D01*
X137206000Y-129325714D01*
X137253619Y-129278095D01*
X137348857Y-129230476D01*
X137444095Y-129230476D01*
X137586952Y-129278095D01*
X138158380Y-129849523D01*
X138158380Y-129230476D01*
X137253619Y-128849523D02*
X137206000Y-128801904D01*
X137158380Y-128706666D01*
X137158380Y-128468571D01*
X137206000Y-128373333D01*
X137253619Y-128325714D01*
X137348857Y-128278095D01*
X137444095Y-128278095D01*
X137586952Y-128325714D01*
X138158380Y-128897142D01*
X138158380Y-128278095D01*
X135618380Y-130754285D02*
X134618380Y-130754285D01*
X134618380Y-130516190D01*
X134666000Y-130373333D01*
X134761238Y-130278095D01*
X134856476Y-130230476D01*
X135046952Y-130182857D01*
X135189809Y-130182857D01*
X135380285Y-130230476D01*
X135475523Y-130278095D01*
X135570761Y-130373333D01*
X135618380Y-130516190D01*
X135618380Y-130754285D01*
X134713619Y-129801904D02*
X134666000Y-129754285D01*
X134618380Y-129659047D01*
X134618380Y-129420952D01*
X134666000Y-129325714D01*
X134713619Y-129278095D01*
X134808857Y-129230476D01*
X134904095Y-129230476D01*
X135046952Y-129278095D01*
X135618380Y-129849523D01*
X135618380Y-129230476D01*
X135618380Y-128278095D02*
X135618380Y-128849523D01*
X135618380Y-128563809D02*
X134618380Y-128563809D01*
X134761238Y-128659047D01*
X134856476Y-128754285D01*
X134904095Y-128849523D01*
X133078380Y-130754285D02*
X132078380Y-130754285D01*
X132078380Y-130516190D01*
X132126000Y-130373333D01*
X132221238Y-130278095D01*
X132316476Y-130230476D01*
X132506952Y-130182857D01*
X132649809Y-130182857D01*
X132840285Y-130230476D01*
X132935523Y-130278095D01*
X133030761Y-130373333D01*
X133078380Y-130516190D01*
X133078380Y-130754285D01*
X132173619Y-129801904D02*
X132126000Y-129754285D01*
X132078380Y-129659047D01*
X132078380Y-129420952D01*
X132126000Y-129325714D01*
X132173619Y-129278095D01*
X132268857Y-129230476D01*
X132364095Y-129230476D01*
X132506952Y-129278095D01*
X133078380Y-129849523D01*
X133078380Y-129230476D01*
X132078380Y-128611428D02*
X132078380Y-128516190D01*
X132126000Y-128420952D01*
X132173619Y-128373333D01*
X132268857Y-128325714D01*
X132459333Y-128278095D01*
X132697428Y-128278095D01*
X132887904Y-128325714D01*
X132983142Y-128373333D01*
X133030761Y-128420952D01*
X133078380Y-128516190D01*
X133078380Y-128611428D01*
X133030761Y-128706666D01*
X132983142Y-128754285D01*
X132887904Y-128801904D01*
X132697428Y-128849523D01*
X132459333Y-128849523D01*
X132268857Y-128801904D01*
X132173619Y-128754285D01*
X132126000Y-128706666D01*
X132078380Y-128611428D01*
X130538380Y-130754285D02*
X129538380Y-130754285D01*
X129538380Y-130516190D01*
X129586000Y-130373333D01*
X129681238Y-130278095D01*
X129776476Y-130230476D01*
X129966952Y-130182857D01*
X130109809Y-130182857D01*
X130300285Y-130230476D01*
X130395523Y-130278095D01*
X130490761Y-130373333D01*
X130538380Y-130516190D01*
X130538380Y-130754285D01*
X130538380Y-129230476D02*
X130538380Y-129801904D01*
X130538380Y-129516190D02*
X129538380Y-129516190D01*
X129681238Y-129611428D01*
X129776476Y-129706666D01*
X129824095Y-129801904D01*
X130538380Y-128754285D02*
X130538380Y-128563809D01*
X130490761Y-128468571D01*
X130443142Y-128420952D01*
X130300285Y-128325714D01*
X130109809Y-128278095D01*
X129728857Y-128278095D01*
X129633619Y-128325714D01*
X129586000Y-128373333D01*
X129538380Y-128468571D01*
X129538380Y-128659047D01*
X129586000Y-128754285D01*
X129633619Y-128801904D01*
X129728857Y-128849523D01*
X129966952Y-128849523D01*
X130062190Y-128801904D01*
X130109809Y-128754285D01*
X130157428Y-128659047D01*
X130157428Y-128468571D01*
X130109809Y-128373333D01*
X130062190Y-128325714D01*
X129966952Y-128278095D01*
X127998380Y-130754285D02*
X126998380Y-130754285D01*
X126998380Y-130516190D01*
X127046000Y-130373333D01*
X127141238Y-130278095D01*
X127236476Y-130230476D01*
X127426952Y-130182857D01*
X127569809Y-130182857D01*
X127760285Y-130230476D01*
X127855523Y-130278095D01*
X127950761Y-130373333D01*
X127998380Y-130516190D01*
X127998380Y-130754285D01*
X127998380Y-129230476D02*
X127998380Y-129801904D01*
X127998380Y-129516190D02*
X126998380Y-129516190D01*
X127141238Y-129611428D01*
X127236476Y-129706666D01*
X127284095Y-129801904D01*
X127426952Y-128659047D02*
X127379333Y-128754285D01*
X127331714Y-128801904D01*
X127236476Y-128849523D01*
X127188857Y-128849523D01*
X127093619Y-128801904D01*
X127046000Y-128754285D01*
X126998380Y-128659047D01*
X126998380Y-128468571D01*
X127046000Y-128373333D01*
X127093619Y-128325714D01*
X127188857Y-128278095D01*
X127236476Y-128278095D01*
X127331714Y-128325714D01*
X127379333Y-128373333D01*
X127426952Y-128468571D01*
X127426952Y-128659047D01*
X127474571Y-128754285D01*
X127522190Y-128801904D01*
X127617428Y-128849523D01*
X127807904Y-128849523D01*
X127903142Y-128801904D01*
X127950761Y-128754285D01*
X127998380Y-128659047D01*
X127998380Y-128468571D01*
X127950761Y-128373333D01*
X127903142Y-128325714D01*
X127807904Y-128278095D01*
X127617428Y-128278095D01*
X127522190Y-128325714D01*
X127474571Y-128373333D01*
X127426952Y-128468571D01*
X125458380Y-130754285D02*
X124458380Y-130754285D01*
X124458380Y-130516190D01*
X124506000Y-130373333D01*
X124601238Y-130278095D01*
X124696476Y-130230476D01*
X124886952Y-130182857D01*
X125029809Y-130182857D01*
X125220285Y-130230476D01*
X125315523Y-130278095D01*
X125410761Y-130373333D01*
X125458380Y-130516190D01*
X125458380Y-130754285D01*
X125458380Y-129230476D02*
X125458380Y-129801904D01*
X125458380Y-129516190D02*
X124458380Y-129516190D01*
X124601238Y-129611428D01*
X124696476Y-129706666D01*
X124744095Y-129801904D01*
X124458380Y-128897142D02*
X124458380Y-128230476D01*
X125458380Y-128659047D01*
X59418380Y-139866666D02*
X58942190Y-140200000D01*
X59418380Y-140438095D02*
X58418380Y-140438095D01*
X58418380Y-140057142D01*
X58466000Y-139961904D01*
X58513619Y-139914285D01*
X58608857Y-139866666D01*
X58751714Y-139866666D01*
X58846952Y-139914285D01*
X58894571Y-139961904D01*
X58942190Y-140057142D01*
X58942190Y-140438095D01*
X58846952Y-139295238D02*
X58799333Y-139390476D01*
X58751714Y-139438095D01*
X58656476Y-139485714D01*
X58608857Y-139485714D01*
X58513619Y-139438095D01*
X58466000Y-139390476D01*
X58418380Y-139295238D01*
X58418380Y-139104761D01*
X58466000Y-139009523D01*
X58513619Y-138961904D01*
X58608857Y-138914285D01*
X58656476Y-138914285D01*
X58751714Y-138961904D01*
X58799333Y-139009523D01*
X58846952Y-139104761D01*
X58846952Y-139295238D01*
X58894571Y-139390476D01*
X58942190Y-139438095D01*
X59037428Y-139485714D01*
X59227904Y-139485714D01*
X59323142Y-139438095D01*
X59370761Y-139390476D01*
X59418380Y-139295238D01*
X59418380Y-139104761D01*
X59370761Y-139009523D01*
X59323142Y-138961904D01*
X59227904Y-138914285D01*
X59037428Y-138914285D01*
X58942190Y-138961904D01*
X58894571Y-139009523D01*
X58846952Y-139104761D01*
X56878380Y-139866666D02*
X56402190Y-140200000D01*
X56878380Y-140438095D02*
X55878380Y-140438095D01*
X55878380Y-140057142D01*
X55926000Y-139961904D01*
X55973619Y-139914285D01*
X56068857Y-139866666D01*
X56211714Y-139866666D01*
X56306952Y-139914285D01*
X56354571Y-139961904D01*
X56402190Y-140057142D01*
X56402190Y-140438095D01*
X55878380Y-139533333D02*
X55878380Y-138866666D01*
X56878380Y-139295238D01*
X54338380Y-139866666D02*
X53862190Y-140200000D01*
X54338380Y-140438095D02*
X53338380Y-140438095D01*
X53338380Y-140057142D01*
X53386000Y-139961904D01*
X53433619Y-139914285D01*
X53528857Y-139866666D01*
X53671714Y-139866666D01*
X53766952Y-139914285D01*
X53814571Y-139961904D01*
X53862190Y-140057142D01*
X53862190Y-140438095D01*
X53338380Y-139009523D02*
X53338380Y-139200000D01*
X53386000Y-139295238D01*
X53433619Y-139342857D01*
X53576476Y-139438095D01*
X53766952Y-139485714D01*
X54147904Y-139485714D01*
X54243142Y-139438095D01*
X54290761Y-139390476D01*
X54338380Y-139295238D01*
X54338380Y-139104761D01*
X54290761Y-139009523D01*
X54243142Y-138961904D01*
X54147904Y-138914285D01*
X53909809Y-138914285D01*
X53814571Y-138961904D01*
X53766952Y-139009523D01*
X53719333Y-139104761D01*
X53719333Y-139295238D01*
X53766952Y-139390476D01*
X53814571Y-139438095D01*
X53909809Y-139485714D01*
X51798380Y-139866666D02*
X51322190Y-140200000D01*
X51798380Y-140438095D02*
X50798380Y-140438095D01*
X50798380Y-140057142D01*
X50846000Y-139961904D01*
X50893619Y-139914285D01*
X50988857Y-139866666D01*
X51131714Y-139866666D01*
X51226952Y-139914285D01*
X51274571Y-139961904D01*
X51322190Y-140057142D01*
X51322190Y-140438095D01*
X50798380Y-138961904D02*
X50798380Y-139438095D01*
X51274571Y-139485714D01*
X51226952Y-139438095D01*
X51179333Y-139342857D01*
X51179333Y-139104761D01*
X51226952Y-139009523D01*
X51274571Y-138961904D01*
X51369809Y-138914285D01*
X51607904Y-138914285D01*
X51703142Y-138961904D01*
X51750761Y-139009523D01*
X51798380Y-139104761D01*
X51798380Y-139342857D01*
X51750761Y-139438095D01*
X51703142Y-139485714D01*
X49512380Y-139866666D02*
X49036190Y-140200000D01*
X49512380Y-140438095D02*
X48512380Y-140438095D01*
X48512380Y-140057142D01*
X48560000Y-139961904D01*
X48607619Y-139914285D01*
X48702857Y-139866666D01*
X48845714Y-139866666D01*
X48940952Y-139914285D01*
X48988571Y-139961904D01*
X49036190Y-140057142D01*
X49036190Y-140438095D01*
X48845714Y-139009523D02*
X49512380Y-139009523D01*
X48464761Y-139247619D02*
X49179047Y-139485714D01*
X49179047Y-138866666D01*
X46972380Y-139866666D02*
X46496190Y-140200000D01*
X46972380Y-140438095D02*
X45972380Y-140438095D01*
X45972380Y-140057142D01*
X46020000Y-139961904D01*
X46067619Y-139914285D01*
X46162857Y-139866666D01*
X46305714Y-139866666D01*
X46400952Y-139914285D01*
X46448571Y-139961904D01*
X46496190Y-140057142D01*
X46496190Y-140438095D01*
X45972380Y-139533333D02*
X45972380Y-138914285D01*
X46353333Y-139247619D01*
X46353333Y-139104761D01*
X46400952Y-139009523D01*
X46448571Y-138961904D01*
X46543809Y-138914285D01*
X46781904Y-138914285D01*
X46877142Y-138961904D01*
X46924761Y-139009523D01*
X46972380Y-139104761D01*
X46972380Y-139390476D01*
X46924761Y-139485714D01*
X46877142Y-139533333D01*
X44432380Y-139866666D02*
X43956190Y-140200000D01*
X44432380Y-140438095D02*
X43432380Y-140438095D01*
X43432380Y-140057142D01*
X43480000Y-139961904D01*
X43527619Y-139914285D01*
X43622857Y-139866666D01*
X43765714Y-139866666D01*
X43860952Y-139914285D01*
X43908571Y-139961904D01*
X43956190Y-140057142D01*
X43956190Y-140438095D01*
X43527619Y-139485714D02*
X43480000Y-139438095D01*
X43432380Y-139342857D01*
X43432380Y-139104761D01*
X43480000Y-139009523D01*
X43527619Y-138961904D01*
X43622857Y-138914285D01*
X43718095Y-138914285D01*
X43860952Y-138961904D01*
X44432380Y-139533333D01*
X44432380Y-138914285D01*
X41892380Y-139866666D02*
X41416190Y-140200000D01*
X41892380Y-140438095D02*
X40892380Y-140438095D01*
X40892380Y-140057142D01*
X40940000Y-139961904D01*
X40987619Y-139914285D01*
X41082857Y-139866666D01*
X41225714Y-139866666D01*
X41320952Y-139914285D01*
X41368571Y-139961904D01*
X41416190Y-140057142D01*
X41416190Y-140438095D01*
X41892380Y-138914285D02*
X41892380Y-139485714D01*
X41892380Y-139200000D02*
X40892380Y-139200000D01*
X41035238Y-139295238D01*
X41130476Y-139390476D01*
X41178095Y-139485714D01*
X79230380Y-140850857D02*
X78754190Y-141184190D01*
X79230380Y-141422285D02*
X78230380Y-141422285D01*
X78230380Y-141041333D01*
X78278000Y-140946095D01*
X78325619Y-140898476D01*
X78420857Y-140850857D01*
X78563714Y-140850857D01*
X78658952Y-140898476D01*
X78706571Y-140946095D01*
X78754190Y-141041333D01*
X78754190Y-141422285D01*
X79230380Y-139898476D02*
X79230380Y-140469904D01*
X79230380Y-140184190D02*
X78230380Y-140184190D01*
X78373238Y-140279428D01*
X78468476Y-140374666D01*
X78516095Y-140469904D01*
X78230380Y-139041333D02*
X78230380Y-139231809D01*
X78278000Y-139327047D01*
X78325619Y-139374666D01*
X78468476Y-139469904D01*
X78658952Y-139517523D01*
X79039904Y-139517523D01*
X79135142Y-139469904D01*
X79182761Y-139422285D01*
X79230380Y-139327047D01*
X79230380Y-139136571D01*
X79182761Y-139041333D01*
X79135142Y-138993714D01*
X79039904Y-138946095D01*
X78801809Y-138946095D01*
X78706571Y-138993714D01*
X78658952Y-139041333D01*
X78611333Y-139136571D01*
X78611333Y-139327047D01*
X78658952Y-139422285D01*
X78706571Y-139469904D01*
X78801809Y-139517523D01*
X76690380Y-140850857D02*
X76214190Y-141184190D01*
X76690380Y-141422285D02*
X75690380Y-141422285D01*
X75690380Y-141041333D01*
X75738000Y-140946095D01*
X75785619Y-140898476D01*
X75880857Y-140850857D01*
X76023714Y-140850857D01*
X76118952Y-140898476D01*
X76166571Y-140946095D01*
X76214190Y-141041333D01*
X76214190Y-141422285D01*
X76690380Y-139898476D02*
X76690380Y-140469904D01*
X76690380Y-140184190D02*
X75690380Y-140184190D01*
X75833238Y-140279428D01*
X75928476Y-140374666D01*
X75976095Y-140469904D01*
X75690380Y-138993714D02*
X75690380Y-139469904D01*
X76166571Y-139517523D01*
X76118952Y-139469904D01*
X76071333Y-139374666D01*
X76071333Y-139136571D01*
X76118952Y-139041333D01*
X76166571Y-138993714D01*
X76261809Y-138946095D01*
X76499904Y-138946095D01*
X76595142Y-138993714D01*
X76642761Y-139041333D01*
X76690380Y-139136571D01*
X76690380Y-139374666D01*
X76642761Y-139469904D01*
X76595142Y-139517523D01*
X74404380Y-140850857D02*
X73928190Y-141184190D01*
X74404380Y-141422285D02*
X73404380Y-141422285D01*
X73404380Y-141041333D01*
X73452000Y-140946095D01*
X73499619Y-140898476D01*
X73594857Y-140850857D01*
X73737714Y-140850857D01*
X73832952Y-140898476D01*
X73880571Y-140946095D01*
X73928190Y-141041333D01*
X73928190Y-141422285D01*
X74404380Y-139898476D02*
X74404380Y-140469904D01*
X74404380Y-140184190D02*
X73404380Y-140184190D01*
X73547238Y-140279428D01*
X73642476Y-140374666D01*
X73690095Y-140469904D01*
X73737714Y-139041333D02*
X74404380Y-139041333D01*
X73356761Y-139279428D02*
X74071047Y-139517523D01*
X74071047Y-138898476D01*
X71864380Y-140850857D02*
X71388190Y-141184190D01*
X71864380Y-141422285D02*
X70864380Y-141422285D01*
X70864380Y-141041333D01*
X70912000Y-140946095D01*
X70959619Y-140898476D01*
X71054857Y-140850857D01*
X71197714Y-140850857D01*
X71292952Y-140898476D01*
X71340571Y-140946095D01*
X71388190Y-141041333D01*
X71388190Y-141422285D01*
X71864380Y-139898476D02*
X71864380Y-140469904D01*
X71864380Y-140184190D02*
X70864380Y-140184190D01*
X71007238Y-140279428D01*
X71102476Y-140374666D01*
X71150095Y-140469904D01*
X70864380Y-139565142D02*
X70864380Y-138946095D01*
X71245333Y-139279428D01*
X71245333Y-139136571D01*
X71292952Y-139041333D01*
X71340571Y-138993714D01*
X71435809Y-138946095D01*
X71673904Y-138946095D01*
X71769142Y-138993714D01*
X71816761Y-139041333D01*
X71864380Y-139136571D01*
X71864380Y-139422285D01*
X71816761Y-139517523D01*
X71769142Y-139565142D01*
X69324380Y-140850857D02*
X68848190Y-141184190D01*
X69324380Y-141422285D02*
X68324380Y-141422285D01*
X68324380Y-141041333D01*
X68372000Y-140946095D01*
X68419619Y-140898476D01*
X68514857Y-140850857D01*
X68657714Y-140850857D01*
X68752952Y-140898476D01*
X68800571Y-140946095D01*
X68848190Y-141041333D01*
X68848190Y-141422285D01*
X69324380Y-139898476D02*
X69324380Y-140469904D01*
X69324380Y-140184190D02*
X68324380Y-140184190D01*
X68467238Y-140279428D01*
X68562476Y-140374666D01*
X68610095Y-140469904D01*
X68419619Y-139517523D02*
X68372000Y-139469904D01*
X68324380Y-139374666D01*
X68324380Y-139136571D01*
X68372000Y-139041333D01*
X68419619Y-138993714D01*
X68514857Y-138946095D01*
X68610095Y-138946095D01*
X68752952Y-138993714D01*
X69324380Y-139565142D01*
X69324380Y-138946095D01*
X66784380Y-140850857D02*
X66308190Y-141184190D01*
X66784380Y-141422285D02*
X65784380Y-141422285D01*
X65784380Y-141041333D01*
X65832000Y-140946095D01*
X65879619Y-140898476D01*
X65974857Y-140850857D01*
X66117714Y-140850857D01*
X66212952Y-140898476D01*
X66260571Y-140946095D01*
X66308190Y-141041333D01*
X66308190Y-141422285D01*
X66784380Y-139898476D02*
X66784380Y-140469904D01*
X66784380Y-140184190D02*
X65784380Y-140184190D01*
X65927238Y-140279428D01*
X66022476Y-140374666D01*
X66070095Y-140469904D01*
X66784380Y-138946095D02*
X66784380Y-139517523D01*
X66784380Y-139231809D02*
X65784380Y-139231809D01*
X65927238Y-139327047D01*
X66022476Y-139422285D01*
X66070095Y-139517523D01*
X64244380Y-140850857D02*
X63768190Y-141184190D01*
X64244380Y-141422285D02*
X63244380Y-141422285D01*
X63244380Y-141041333D01*
X63292000Y-140946095D01*
X63339619Y-140898476D01*
X63434857Y-140850857D01*
X63577714Y-140850857D01*
X63672952Y-140898476D01*
X63720571Y-140946095D01*
X63768190Y-141041333D01*
X63768190Y-141422285D01*
X64244380Y-139898476D02*
X64244380Y-140469904D01*
X64244380Y-140184190D02*
X63244380Y-140184190D01*
X63387238Y-140279428D01*
X63482476Y-140374666D01*
X63530095Y-140469904D01*
X63244380Y-139279428D02*
X63244380Y-139184190D01*
X63292000Y-139088952D01*
X63339619Y-139041333D01*
X63434857Y-138993714D01*
X63625333Y-138946095D01*
X63863428Y-138946095D01*
X64053904Y-138993714D01*
X64149142Y-139041333D01*
X64196761Y-139088952D01*
X64244380Y-139184190D01*
X64244380Y-139279428D01*
X64196761Y-139374666D01*
X64149142Y-139422285D01*
X64053904Y-139469904D01*
X63863428Y-139517523D01*
X63625333Y-139517523D01*
X63434857Y-139469904D01*
X63339619Y-139422285D01*
X63292000Y-139374666D01*
X63244380Y-139279428D01*
X61958380Y-139866666D02*
X61482190Y-140200000D01*
X61958380Y-140438095D02*
X60958380Y-140438095D01*
X60958380Y-140057142D01*
X61006000Y-139961904D01*
X61053619Y-139914285D01*
X61148857Y-139866666D01*
X61291714Y-139866666D01*
X61386952Y-139914285D01*
X61434571Y-139961904D01*
X61482190Y-140057142D01*
X61482190Y-140438095D01*
X61958380Y-139390476D02*
X61958380Y-139200000D01*
X61910761Y-139104761D01*
X61863142Y-139057142D01*
X61720285Y-138961904D01*
X61529809Y-138914285D01*
X61148857Y-138914285D01*
X61053619Y-138961904D01*
X61006000Y-139009523D01*
X60958380Y-139104761D01*
X60958380Y-139295238D01*
X61006000Y-139390476D01*
X61053619Y-139438095D01*
X61148857Y-139485714D01*
X61386952Y-139485714D01*
X61482190Y-139438095D01*
X61529809Y-139390476D01*
X61577428Y-139295238D01*
X61577428Y-139104761D01*
X61529809Y-139009523D01*
X61482190Y-138961904D01*
X61386952Y-138914285D01*
X143238380Y-140850857D02*
X142762190Y-141184190D01*
X143238380Y-141422285D02*
X142238380Y-141422285D01*
X142238380Y-141041333D01*
X142286000Y-140946095D01*
X142333619Y-140898476D01*
X142428857Y-140850857D01*
X142571714Y-140850857D01*
X142666952Y-140898476D01*
X142714571Y-140946095D01*
X142762190Y-141041333D01*
X142762190Y-141422285D01*
X142333619Y-140469904D02*
X142286000Y-140422285D01*
X142238380Y-140327047D01*
X142238380Y-140088952D01*
X142286000Y-139993714D01*
X142333619Y-139946095D01*
X142428857Y-139898476D01*
X142524095Y-139898476D01*
X142666952Y-139946095D01*
X143238380Y-140517523D01*
X143238380Y-139898476D01*
X142571714Y-139041333D02*
X143238380Y-139041333D01*
X142190761Y-139279428D02*
X142905047Y-139517523D01*
X142905047Y-138898476D01*
X140698380Y-140850857D02*
X140222190Y-141184190D01*
X140698380Y-141422285D02*
X139698380Y-141422285D01*
X139698380Y-141041333D01*
X139746000Y-140946095D01*
X139793619Y-140898476D01*
X139888857Y-140850857D01*
X140031714Y-140850857D01*
X140126952Y-140898476D01*
X140174571Y-140946095D01*
X140222190Y-141041333D01*
X140222190Y-141422285D01*
X139793619Y-140469904D02*
X139746000Y-140422285D01*
X139698380Y-140327047D01*
X139698380Y-140088952D01*
X139746000Y-139993714D01*
X139793619Y-139946095D01*
X139888857Y-139898476D01*
X139984095Y-139898476D01*
X140126952Y-139946095D01*
X140698380Y-140517523D01*
X140698380Y-139898476D01*
X139698380Y-139565142D02*
X139698380Y-138946095D01*
X140079333Y-139279428D01*
X140079333Y-139136571D01*
X140126952Y-139041333D01*
X140174571Y-138993714D01*
X140269809Y-138946095D01*
X140507904Y-138946095D01*
X140603142Y-138993714D01*
X140650761Y-139041333D01*
X140698380Y-139136571D01*
X140698380Y-139422285D01*
X140650761Y-139517523D01*
X140603142Y-139565142D01*
X138158380Y-140850857D02*
X137682190Y-141184190D01*
X138158380Y-141422285D02*
X137158380Y-141422285D01*
X137158380Y-141041333D01*
X137206000Y-140946095D01*
X137253619Y-140898476D01*
X137348857Y-140850857D01*
X137491714Y-140850857D01*
X137586952Y-140898476D01*
X137634571Y-140946095D01*
X137682190Y-141041333D01*
X137682190Y-141422285D01*
X137253619Y-140469904D02*
X137206000Y-140422285D01*
X137158380Y-140327047D01*
X137158380Y-140088952D01*
X137206000Y-139993714D01*
X137253619Y-139946095D01*
X137348857Y-139898476D01*
X137444095Y-139898476D01*
X137586952Y-139946095D01*
X138158380Y-140517523D01*
X138158380Y-139898476D01*
X137253619Y-139517523D02*
X137206000Y-139469904D01*
X137158380Y-139374666D01*
X137158380Y-139136571D01*
X137206000Y-139041333D01*
X137253619Y-138993714D01*
X137348857Y-138946095D01*
X137444095Y-138946095D01*
X137586952Y-138993714D01*
X138158380Y-139565142D01*
X138158380Y-138946095D01*
X135618380Y-140850857D02*
X135142190Y-141184190D01*
X135618380Y-141422285D02*
X134618380Y-141422285D01*
X134618380Y-141041333D01*
X134666000Y-140946095D01*
X134713619Y-140898476D01*
X134808857Y-140850857D01*
X134951714Y-140850857D01*
X135046952Y-140898476D01*
X135094571Y-140946095D01*
X135142190Y-141041333D01*
X135142190Y-141422285D01*
X134713619Y-140469904D02*
X134666000Y-140422285D01*
X134618380Y-140327047D01*
X134618380Y-140088952D01*
X134666000Y-139993714D01*
X134713619Y-139946095D01*
X134808857Y-139898476D01*
X134904095Y-139898476D01*
X135046952Y-139946095D01*
X135618380Y-140517523D01*
X135618380Y-139898476D01*
X135618380Y-138946095D02*
X135618380Y-139517523D01*
X135618380Y-139231809D02*
X134618380Y-139231809D01*
X134761238Y-139327047D01*
X134856476Y-139422285D01*
X134904095Y-139517523D01*
X133078380Y-140850857D02*
X132602190Y-141184190D01*
X133078380Y-141422285D02*
X132078380Y-141422285D01*
X132078380Y-141041333D01*
X132126000Y-140946095D01*
X132173619Y-140898476D01*
X132268857Y-140850857D01*
X132411714Y-140850857D01*
X132506952Y-140898476D01*
X132554571Y-140946095D01*
X132602190Y-141041333D01*
X132602190Y-141422285D01*
X132173619Y-140469904D02*
X132126000Y-140422285D01*
X132078380Y-140327047D01*
X132078380Y-140088952D01*
X132126000Y-139993714D01*
X132173619Y-139946095D01*
X132268857Y-139898476D01*
X132364095Y-139898476D01*
X132506952Y-139946095D01*
X133078380Y-140517523D01*
X133078380Y-139898476D01*
X132078380Y-139279428D02*
X132078380Y-139184190D01*
X132126000Y-139088952D01*
X132173619Y-139041333D01*
X132268857Y-138993714D01*
X132459333Y-138946095D01*
X132697428Y-138946095D01*
X132887904Y-138993714D01*
X132983142Y-139041333D01*
X133030761Y-139088952D01*
X133078380Y-139184190D01*
X133078380Y-139279428D01*
X133030761Y-139374666D01*
X132983142Y-139422285D01*
X132887904Y-139469904D01*
X132697428Y-139517523D01*
X132459333Y-139517523D01*
X132268857Y-139469904D01*
X132173619Y-139422285D01*
X132126000Y-139374666D01*
X132078380Y-139279428D01*
X130538380Y-140850857D02*
X130062190Y-141184190D01*
X130538380Y-141422285D02*
X129538380Y-141422285D01*
X129538380Y-141041333D01*
X129586000Y-140946095D01*
X129633619Y-140898476D01*
X129728857Y-140850857D01*
X129871714Y-140850857D01*
X129966952Y-140898476D01*
X130014571Y-140946095D01*
X130062190Y-141041333D01*
X130062190Y-141422285D01*
X130538380Y-139898476D02*
X130538380Y-140469904D01*
X130538380Y-140184190D02*
X129538380Y-140184190D01*
X129681238Y-140279428D01*
X129776476Y-140374666D01*
X129824095Y-140469904D01*
X130538380Y-139422285D02*
X130538380Y-139231809D01*
X130490761Y-139136571D01*
X130443142Y-139088952D01*
X130300285Y-138993714D01*
X130109809Y-138946095D01*
X129728857Y-138946095D01*
X129633619Y-138993714D01*
X129586000Y-139041333D01*
X129538380Y-139136571D01*
X129538380Y-139327047D01*
X129586000Y-139422285D01*
X129633619Y-139469904D01*
X129728857Y-139517523D01*
X129966952Y-139517523D01*
X130062190Y-139469904D01*
X130109809Y-139422285D01*
X130157428Y-139327047D01*
X130157428Y-139136571D01*
X130109809Y-139041333D01*
X130062190Y-138993714D01*
X129966952Y-138946095D01*
X127998380Y-140850857D02*
X127522190Y-141184190D01*
X127998380Y-141422285D02*
X126998380Y-141422285D01*
X126998380Y-141041333D01*
X127046000Y-140946095D01*
X127093619Y-140898476D01*
X127188857Y-140850857D01*
X127331714Y-140850857D01*
X127426952Y-140898476D01*
X127474571Y-140946095D01*
X127522190Y-141041333D01*
X127522190Y-141422285D01*
X127998380Y-139898476D02*
X127998380Y-140469904D01*
X127998380Y-140184190D02*
X126998380Y-140184190D01*
X127141238Y-140279428D01*
X127236476Y-140374666D01*
X127284095Y-140469904D01*
X127426952Y-139327047D02*
X127379333Y-139422285D01*
X127331714Y-139469904D01*
X127236476Y-139517523D01*
X127188857Y-139517523D01*
X127093619Y-139469904D01*
X127046000Y-139422285D01*
X126998380Y-139327047D01*
X126998380Y-139136571D01*
X127046000Y-139041333D01*
X127093619Y-138993714D01*
X127188857Y-138946095D01*
X127236476Y-138946095D01*
X127331714Y-138993714D01*
X127379333Y-139041333D01*
X127426952Y-139136571D01*
X127426952Y-139327047D01*
X127474571Y-139422285D01*
X127522190Y-139469904D01*
X127617428Y-139517523D01*
X127807904Y-139517523D01*
X127903142Y-139469904D01*
X127950761Y-139422285D01*
X127998380Y-139327047D01*
X127998380Y-139136571D01*
X127950761Y-139041333D01*
X127903142Y-138993714D01*
X127807904Y-138946095D01*
X127617428Y-138946095D01*
X127522190Y-138993714D01*
X127474571Y-139041333D01*
X127426952Y-139136571D01*
X125458380Y-140850857D02*
X124982190Y-141184190D01*
X125458380Y-141422285D02*
X124458380Y-141422285D01*
X124458380Y-141041333D01*
X124506000Y-140946095D01*
X124553619Y-140898476D01*
X124648857Y-140850857D01*
X124791714Y-140850857D01*
X124886952Y-140898476D01*
X124934571Y-140946095D01*
X124982190Y-141041333D01*
X124982190Y-141422285D01*
X125458380Y-139898476D02*
X125458380Y-140469904D01*
X125458380Y-140184190D02*
X124458380Y-140184190D01*
X124601238Y-140279428D01*
X124696476Y-140374666D01*
X124744095Y-140469904D01*
X124458380Y-139565142D02*
X124458380Y-138898476D01*
X125458380Y-139327047D01*
X93176666Y-120102380D02*
X93176666Y-120816666D01*
X93129047Y-120959523D01*
X93033809Y-121054761D01*
X92890952Y-121102380D01*
X92795714Y-121102380D01*
X93557619Y-120102380D02*
X94176666Y-120102380D01*
X93843333Y-120483333D01*
X93986190Y-120483333D01*
X94081428Y-120530952D01*
X94129047Y-120578571D01*
X94176666Y-120673809D01*
X94176666Y-120911904D01*
X94129047Y-121007142D01*
X94081428Y-121054761D01*
X93986190Y-121102380D01*
X93700476Y-121102380D01*
X93605238Y-121054761D01*
X93557619Y-121007142D01*
X92860380Y-118323357D02*
X92384190Y-118656690D01*
X92860380Y-118894785D02*
X91860380Y-118894785D01*
X91860380Y-118513833D01*
X91908000Y-118418595D01*
X91955619Y-118370976D01*
X92050857Y-118323357D01*
X92193714Y-118323357D01*
X92288952Y-118370976D01*
X92336571Y-118418595D01*
X92384190Y-118513833D01*
X92384190Y-118894785D01*
X91955619Y-117942404D02*
X91908000Y-117894785D01*
X91860380Y-117799547D01*
X91860380Y-117561452D01*
X91908000Y-117466214D01*
X91955619Y-117418595D01*
X92050857Y-117370976D01*
X92146095Y-117370976D01*
X92288952Y-117418595D01*
X92860380Y-117990023D01*
X92860380Y-117370976D01*
X91860380Y-116466214D02*
X91860380Y-116942404D01*
X92336571Y-116990023D01*
X92288952Y-116942404D01*
X92241333Y-116847166D01*
X92241333Y-116609071D01*
X92288952Y-116513833D01*
X92336571Y-116466214D01*
X92431809Y-116418595D01*
X92669904Y-116418595D01*
X92765142Y-116466214D01*
X92812761Y-116513833D01*
X92860380Y-116609071D01*
X92860380Y-116847166D01*
X92812761Y-116942404D01*
X92765142Y-116990023D01*
X34074095Y-114006380D02*
X34074095Y-114815904D01*
X34121714Y-114911142D01*
X34169333Y-114958761D01*
X34264571Y-115006380D01*
X34455047Y-115006380D01*
X34550285Y-114958761D01*
X34597904Y-114911142D01*
X34645523Y-114815904D01*
X34645523Y-114006380D01*
X35597904Y-114006380D02*
X35121714Y-114006380D01*
X35074095Y-114482571D01*
X35121714Y-114434952D01*
X35216952Y-114387333D01*
X35455047Y-114387333D01*
X35550285Y-114434952D01*
X35597904Y-114482571D01*
X35645523Y-114577809D01*
X35645523Y-114815904D01*
X35597904Y-114911142D01*
X35550285Y-114958761D01*
X35455047Y-115006380D01*
X35216952Y-115006380D01*
X35121714Y-114958761D01*
X35074095Y-114911142D01*
X60236095Y-114006380D02*
X60236095Y-114815904D01*
X60283714Y-114911142D01*
X60331333Y-114958761D01*
X60426571Y-115006380D01*
X60617047Y-115006380D01*
X60712285Y-114958761D01*
X60759904Y-114911142D01*
X60807523Y-114815904D01*
X60807523Y-114006380D01*
X61712285Y-114006380D02*
X61521809Y-114006380D01*
X61426571Y-114054000D01*
X61378952Y-114101619D01*
X61283714Y-114244476D01*
X61236095Y-114434952D01*
X61236095Y-114815904D01*
X61283714Y-114911142D01*
X61331333Y-114958761D01*
X61426571Y-115006380D01*
X61617047Y-115006380D01*
X61712285Y-114958761D01*
X61759904Y-114911142D01*
X61807523Y-114815904D01*
X61807523Y-114577809D01*
X61759904Y-114482571D01*
X61712285Y-114434952D01*
X61617047Y-114387333D01*
X61426571Y-114387333D01*
X61331333Y-114434952D01*
X61283714Y-114482571D01*
X61236095Y-114577809D01*
X34756666Y-141438380D02*
X34756666Y-142152666D01*
X34709047Y-142295523D01*
X34613809Y-142390761D01*
X34470952Y-142438380D01*
X34375714Y-142438380D01*
X35756666Y-142438380D02*
X35185238Y-142438380D01*
X35470952Y-142438380D02*
X35470952Y-141438380D01*
X35375714Y-141581238D01*
X35280476Y-141676476D01*
X35185238Y-141724095D01*
X117052666Y-141438380D02*
X117052666Y-142152666D01*
X117005047Y-142295523D01*
X116909809Y-142390761D01*
X116766952Y-142438380D01*
X116671714Y-142438380D01*
X117481238Y-141533619D02*
X117528857Y-141486000D01*
X117624095Y-141438380D01*
X117862190Y-141438380D01*
X117957428Y-141486000D01*
X118005047Y-141533619D01*
X118052666Y-141628857D01*
X118052666Y-141724095D01*
X118005047Y-141866952D01*
X117433619Y-142438380D01*
X118052666Y-142438380D01*
X108924666Y-61682380D02*
X108924666Y-62396666D01*
X108877047Y-62539523D01*
X108781809Y-62634761D01*
X108638952Y-62682380D01*
X108543714Y-62682380D01*
X109829428Y-62015714D02*
X109829428Y-62682380D01*
X109591333Y-61634761D02*
X109353238Y-62349047D01*
X109972285Y-62349047D01*
X132546666Y-88352380D02*
X132546666Y-89066666D01*
X132499047Y-89209523D01*
X132403809Y-89304761D01*
X132260952Y-89352380D01*
X132165714Y-89352380D01*
X133499047Y-88352380D02*
X133022857Y-88352380D01*
X132975238Y-88828571D01*
X133022857Y-88780952D01*
X133118095Y-88733333D01*
X133356190Y-88733333D01*
X133451428Y-88780952D01*
X133499047Y-88828571D01*
X133546666Y-88923809D01*
X133546666Y-89161904D01*
X133499047Y-89257142D01*
X133451428Y-89304761D01*
X133356190Y-89352380D01*
X133118095Y-89352380D01*
X133022857Y-89304761D01*
X132975238Y-89257142D01*
M02*
