M48
; DRILL file {KiCad (5.1.6)-1} date 08/15/20 13:17:48
; FORMAT={-:-/ absolute / inch / decimal}
; #@! TF.CreationDate,2020-08-15T13:17:48-05:00
; #@! TF.GenerationSoftware,Kicad,Pcbnew,(5.1.6)-1
; #@! TF.FileFunction,Plated,1,2,PTH
FMAT,2
INCH
T1C0.0118
T2C0.0157
T3C0.0315
T4C0.0394
%
G90
G05
T1
X1.4581Y-4.795
X1.5431Y-5.0
X1.6Y-4.8031
X1.6431Y-5.0
X1.7Y-4.8131
X1.7131Y-3.16
X1.7431Y-5.0
X1.8Y-4.8231
X1.8431Y-5.0
X2.1215Y-3.31
X2.3031Y-3.24
X2.3815Y-4.38
X2.4215Y-3.31
X2.4231Y-2.71
X2.5115Y-4.38
X2.5231Y-2.71
X2.5731Y-4.4
X2.6231Y-3.3
X2.6231Y-3.98
X2.7121Y-2.709
X2.7231Y-3.3
X2.7231Y-4.02
X2.7331Y-4.28
X2.8231Y-3.3
X2.8231Y-4.06
X2.8231Y-4.4
X2.8731Y-2.71
X2.8731Y-4.28
X2.9231Y-3.3
X3.0131Y-2.12
X3.0531Y-2.3
X3.1631Y-2.9
X3.1731Y-4.28
X3.1815Y-4.48
X3.1815Y-4.7
X3.1815Y-5.01
X3.2215Y-4.85
X3.2331Y-4.48
X3.3331Y-1.48
X3.3631Y-1.48
X3.3631Y-3.1
X3.3631Y-3.9
X3.3931Y-1.48
X3.3931Y-3.1
X3.3931Y-3.9
X3.4231Y-1.48
X3.4231Y-3.1
X3.4231Y-3.9
X3.4531Y-1.48
X3.4531Y-3.1
X3.4531Y-3.9
X3.4831Y-1.48
X3.4831Y-3.1
X3.4831Y-3.9
X3.5131Y-1.48
X3.5131Y-3.1
X3.5131Y-3.9
X3.5431Y-1.48
X3.5431Y-3.1
X3.5431Y-3.9
X3.5731Y-1.48
X3.5731Y-3.1
X3.5731Y-3.9
X3.6031Y-2.9
X3.6331Y-1.59
X4.1531Y-3.16
X4.1631Y-1.95
X4.2431Y-3.3
X4.3031Y-1.3
X4.4031Y-1.33
X4.5031Y-1.36
X4.6131Y-1.39
X5.7131Y-4.78
T2
X1.3515Y-1.94
X2.0731Y-3.2
X3.0715Y-3.2
X3.0831Y-4.48
X3.92Y-1.9131
T3
X2.43Y-4.61
X2.43Y-4.91
X2.53Y-4.61
X2.53Y-4.91
X2.63Y-4.61
X2.63Y-4.91
X2.73Y-4.61
X2.73Y-4.91
X2.83Y-4.61
X2.83Y-4.91
X2.93Y-4.61
X2.93Y-4.91
X3.03Y-4.61
X3.03Y-4.91
X3.13Y-4.61
X3.13Y-4.91
X3.23Y-4.61
X3.23Y-4.91
X3.33Y-4.61
X3.33Y-4.91
X1.4Y-4.61
X1.4Y-4.91
X1.5Y-4.61
X1.5Y-4.91
X1.6Y-4.61
X1.6Y-4.91
X1.7Y-4.61
X1.7Y-4.91
X1.8Y-4.61
X1.8Y-4.91
X1.9Y-4.61
X1.9Y-4.91
X2.0Y-4.61
X2.0Y-4.91
X2.1Y-4.61
X2.1Y-4.91
X2.2Y-4.61
X2.2Y-4.91
X2.3Y-4.61
X2.3Y-4.91
X4.11Y-1.46
X4.11Y-2.06
X4.21Y-1.46
X4.21Y-2.06
X4.31Y-1.46
X4.31Y-2.06
X4.41Y-1.46
X4.41Y-2.06
X4.51Y-1.46
X4.51Y-2.06
X4.61Y-1.46
X4.61Y-2.06
X4.71Y-1.46
X4.71Y-2.06
X4.81Y-1.46
X4.81Y-2.06
X4.91Y-1.46
X4.91Y-2.06
X5.01Y-1.46
X5.01Y-2.06
X5.11Y-1.46
X5.11Y-2.06
X5.21Y-1.46
X5.21Y-2.06
X5.31Y-1.46
X5.31Y-2.06
X5.41Y-1.46
X5.41Y-2.06
X5.51Y-1.46
X5.51Y-2.06
X5.61Y-1.46
X5.61Y-2.06
X5.71Y-1.46
X5.71Y-2.06
X5.81Y-1.46
X5.81Y-2.06
X5.91Y-1.46
X5.91Y-2.06
X6.01Y-1.46
X6.01Y-2.06
X4.8131Y-4.61
X4.8131Y-4.91
X4.9131Y-4.61
X4.9131Y-4.91
X5.0131Y-4.61
X5.0131Y-4.91
X5.1131Y-4.61
X5.1131Y-4.91
X5.2131Y-4.61
X5.2131Y-4.91
X5.3131Y-4.61
X5.3131Y-4.91
X5.4131Y-4.61
X5.4131Y-4.91
X5.5131Y-4.61
X5.5131Y-4.91
X5.6131Y-4.61
X5.6131Y-4.91
X5.7131Y-4.61
X5.7131Y-4.91
X1.36Y-1.46
X1.36Y-2.06
X1.46Y-1.46
X1.46Y-2.06
X1.56Y-1.46
X1.56Y-2.06
X1.66Y-1.46
X1.66Y-2.06
X1.76Y-1.46
X1.76Y-2.06
X1.86Y-1.46
X1.86Y-2.06
X1.96Y-1.46
X1.96Y-2.06
X2.06Y-1.46
X2.06Y-2.06
X2.16Y-1.46
X2.16Y-2.06
X2.26Y-1.46
X2.26Y-2.06
X2.36Y-1.46
X2.36Y-2.06
X2.46Y-1.46
X2.46Y-2.06
X2.56Y-1.46
X2.56Y-2.06
X2.66Y-1.46
X2.66Y-2.06
X2.76Y-1.46
X2.76Y-2.06
X2.86Y-1.46
X2.86Y-2.06
X2.96Y-1.46
X2.96Y-2.06
X3.06Y-1.46
X3.06Y-2.06
X3.16Y-1.46
X3.16Y-2.06
X3.26Y-1.46
X3.26Y-2.06
X1.7731Y-3.6
X1.7731Y-4.2
X1.8731Y-3.6
X1.8731Y-4.2
X1.9731Y-3.6
X1.9731Y-4.2
X2.0731Y-3.6
X2.0731Y-4.2
X2.1731Y-3.6
X2.1731Y-4.2
X2.2731Y-3.6
X2.2731Y-4.2
X2.3731Y-3.6
X2.3731Y-4.2
X2.4731Y-3.6
X2.4731Y-4.2
X2.5731Y-3.6
X2.5731Y-4.2
X2.6731Y-3.6
X2.6731Y-4.2
X2.7731Y-3.6
X2.7731Y-4.2
X2.8731Y-3.6
X2.8731Y-4.2
X2.9731Y-3.6
X2.9731Y-4.2
X3.0731Y-3.6
X3.0731Y-4.2
X1.7731Y-2.43
X1.7731Y-3.03
X1.8731Y-2.43
X1.8731Y-3.03
X1.9731Y-2.43
X1.9731Y-3.03
X2.0731Y-2.43
X2.0731Y-3.03
X2.1731Y-2.43
X2.1731Y-3.03
X2.2731Y-2.43
X2.2731Y-3.03
X2.3731Y-2.43
X2.3731Y-3.03
X2.4731Y-2.43
X2.4731Y-3.03
X2.5731Y-2.43
X2.5731Y-3.03
X2.6731Y-2.43
X2.6731Y-3.03
X2.7731Y-2.43
X2.7731Y-3.03
X2.8731Y-2.43
X2.8731Y-3.03
X2.9731Y-2.43
X2.9731Y-3.03
X3.0731Y-2.43
X3.0731Y-3.03
T4
X4.8131Y-5.77
X4.8131Y-5.87
X4.9131Y-5.77
X4.9131Y-5.87
X5.0131Y-5.77
X5.0131Y-5.87
X5.1131Y-5.77
X5.1131Y-5.87
X5.2131Y-5.77
X5.2131Y-5.87
X5.3131Y-5.77
X5.3131Y-5.87
X5.4131Y-5.77
X5.4131Y-5.87
X5.5131Y-5.77
X5.5131Y-5.87
X5.6131Y-5.77
X5.6131Y-5.87
X5.7131Y-5.77
X5.7131Y-5.87
X5.3431Y-3.23
X5.4431Y-3.23
X5.5431Y-3.23
X5.6431Y-3.23
X5.7431Y-3.23
X4.3431Y-3.5
X4.4431Y-3.5
X1.5731Y-5.77
X1.5731Y-5.87
X1.6731Y-5.77
X1.6731Y-5.87
X1.7731Y-5.77
X1.7731Y-5.87
X1.8731Y-5.77
X1.8731Y-5.87
X1.9731Y-5.77
X1.9731Y-5.87
X2.0731Y-5.77
X2.0731Y-5.87
X2.1731Y-5.77
X2.1731Y-5.87
X2.2731Y-5.77
X2.2731Y-5.87
X2.3731Y-5.77
X2.3731Y-5.87
X2.4731Y-5.77
X2.4731Y-5.87
X2.5731Y-5.77
X2.5731Y-5.87
X2.6731Y-5.77
X2.6731Y-5.87
X2.7731Y-5.77
X2.7731Y-5.87
X2.8731Y-5.77
X2.8731Y-5.87
X2.9731Y-5.77
X2.9731Y-5.87
X3.0731Y-5.77
X3.0731Y-5.87
X3.1731Y-5.77
X3.1731Y-5.87
X3.5731Y-4.8
X3.5731Y-4.9
X4.49Y-2.63
X4.49Y-2.73
X4.59Y-2.63
X4.59Y-2.73
X4.69Y-2.63
X4.69Y-2.73
X4.79Y-2.63
X4.79Y-2.73
X4.89Y-2.63
X4.89Y-2.73
X4.99Y-2.63
X4.99Y-2.73
X5.09Y-2.63
X5.09Y-2.73
X5.19Y-2.63
X5.19Y-2.73
X5.29Y-2.63
X5.29Y-2.73
X5.39Y-2.63
X5.39Y-2.73
X5.49Y-2.63
X5.49Y-2.73
X5.59Y-2.63
X5.59Y-2.73
X4.3431Y-3.23
X4.4431Y-3.23
X4.5431Y-3.23
X4.6431Y-3.23
X4.5731Y-4.8
X4.5731Y-4.9
X5.3431Y-3.5
X5.4431Y-3.5
X5.5431Y-3.5
X5.6431Y-3.5
X5.7431Y-3.5
T0
M30
